<?xml version="1.0" encoding="utf-8"?>
<!-- Generator: $$$/GeneralStr/196=Adobe Illustrator 27.6.0, SVG Export Plug-In . SVG Version: 6.00 Build 0)  -->
<svg version="1.1" id="Calque_1" xmlns="http://www.w3.org/2000/svg" xmlns:xlink="http://www.w3.org/1999/xlink" x="0px" y="0px"
	 viewBox="0 0 265 86.9" style="enable-background:new 0 0 265 86.9;" xml:space="preserve">
<style type="text/css">
	.st0{fill:#FFFFFF;}
	.st1{fill:#E42328;}
	.st2{fill:#253784;}
</style>
<path class="st0" d="M219.1,0c-23.6,0-42.7,19.1-42.7,42.7c0,21.9,16.5,40,37.8,42.5c-0.3-1.7-4.1-26.2-4.1-26.3
	c0-0.1,0-0.2,0.2-0.2h2.6c0.4,0,0.4-0.3,0.5-0.4l4.7-24.9c0,0,0,0,0-0.1c0.1-0.5-0.4-0.6-0.4-0.6c-2.5,0-11.9,0-11.9,0
	s-0.6,0-0.4-0.5c0,0,3.9-23.3,4.2-25.3c0-0.1,0.1-0.2,0.2-0.2h12.7c0.2,0,0.1,0.2,0.1,0.2l-0.4,1.6h-9.6l-1.7,9.6
	c0,0.2,0,0.6,0.5,0.6h8.3l-0.4,1.6c0,0,0,0-0.1,0h-8.5c-0.4,0-0.5,0.3-0.5,0.4l-1.7,9.7h9.9c0.2,0,0.2,0.1,0.2,0.1L218,32
	c-0.1,0.4,0.3,0.6,0.4,0.6h2.5c7.3-0.4,10,3.2,10.1,6.7c0.1,3.7-2.8,7.4-7.2,7.6c-1.3,0.1-2.4-0.4-2.7-0.4l-0.1-0.4
	c9,1,11.5-12.8-0.4-11.2L216,58.8h-2.7c-0.4,0-0.4,0.3-0.4,0.4l3.3,19.7c0,0,11.1-20.2,11.1-20.3h2.7l-14.8,26.5
	c1.2,0.1,2.5,0.2,3.7,0.2c23.6,0,42.7-19.1,42.7-42.7C261.8,19.1,242.7,0,219.1,0z"/>
<g>
	<path class="st0" d="M0.5,17.6c0-2.3,0-4-0.3-4.6c0.3,0,0.6,0,0.9,0s1.7,0,2.4,0c1.2,0,2.3,0.2,3,0.6C7.3,14.1,8,15,8,16.2
		c0,1.4-0.8,2.4-2,3.3c0.9,1.4,2.1,2.9,3,4.1c0.8,0.8,1.2,1.2,1.5,1.4c-0.3,0.2-0.9,0.2-1.4,0.2c-0.9,0-1.4-0.3-2-0.8
		c-0.9-0.9-2.3-3-2.9-4c0-0.2-0.2-0.2-0.2-0.2c-0.3,0-1.2,0-1.8,0c0,0,0,0,0,0.2V21c0,2,0.2,3.5,0.2,4.3c-0.2,0-0.6,0-0.9,0
		c-0.5,0-1.1,0-1.4,0c0.2-0.6,0.2-2.6,0.2-4.6v-3.1H0.5z M2.5,18.7C2.5,18.8,2.5,18.8,2.5,18.7C2.8,19,3.4,19,4.2,19
		c0.5,0,0.8,0,0.9-0.2c0.5-0.5,1.1-1.1,1.1-2.1c0-1.7-1.2-2.6-2.6-2.6c-0.5,0-0.8,0-1.1,0c0,0,0,0,0,0.2V18.7z"/>
	<path class="st0" d="M18.6,17.6c0-2.6-0.2-4.1-0.2-4.6c0.3,0,0.8,0,1.2,0h3.8c0.5,0,1.2,0,1.5-0.2c0,0.3-0.2,1.1-0.2,1.8
		c-0.3-0.2-0.6-0.3-1.5-0.3c-0.5,0-1.5,0-2.6,0V18c0.3,0,2,0,2.4,0c0.9,0,1.2-0.2,1.5-0.2c-0.2,0.5-0.2,1.4-0.2,1.8
		c-0.3-0.2-0.6-0.3-1.2-0.3c-0.5,0-2.1,0-2.6,0v0.9c0,2.9,0,3.2,0.2,3.3c0,0,0.2,0.2,0.3,0.2c0.5,0,0.9,0,1.5,0
		c1.4,0,2.1-0.2,2.7-0.3c-0.2,0.5-0.3,1.2-0.5,1.7c0,0-0.3,0-0.9,0c-2.1,0-3.3-0.2-4.3-0.2c-0.6,0-1.1,0-1.4,0
		c0-0.6,0.2-2.3,0.2-4.6v-2.7H18.6z M23.5,9c0.2,0.3,0.8,0.9,1.1,1.2c-0.5,0.2-2.4,1.4-3.3,2l-0.6-0.8L23.5,9z"/>
	<path class="st0" d="M33.5,22.3c0.5,0.6,1.7,1.4,2.9,1.4c1.4,0,2-0.8,2-1.7c0-0.8-0.3-1.4-1.5-2.1l-0.8-0.5
		c-1.8-1.2-2.1-2.3-2.1-3.3c0-1.8,1.4-3.2,3.7-3.2c0.6,0,1.2,0.2,1.7,0.2c0.6,0.2,0.9,0.2,1.1,0.2c0,0.2-0.2,1.2-0.2,2.1
		c-0.3-0.3-1.1-1.1-2.4-1.1c-1.1,0-1.8,0.8-1.8,1.5s0.2,1.2,1.4,2.1l0.6,0.2c2,1.2,2.4,2.3,2.4,3.5c0,0.9-0.5,2.1-1.5,2.9
		c-0.8,0.5-1.8,0.8-2.6,0.8c-1.1,0-2.3-0.3-2.9-0.8C33.5,24.3,33.7,23.1,33.5,22.3z"/>
	<path class="st0" d="M49.7,17.6c0-2.6-0.2-4.1-0.2-4.6c0.3,0,0.8,0,1.2,0h3.8c0.5,0,1.2,0,1.5-0.2c0,0.3-0.2,1.1-0.2,1.8
		c-0.3-0.2-0.6-0.3-1.5-0.3c-0.5,0-1.5,0-2.6,0V18c0.3,0,2,0,2.4,0c0.9,0,1.2-0.2,1.5-0.2c-0.2,0.5-0.2,1.4-0.2,1.8
		c-0.3-0.2-0.6-0.3-1.2-0.3c-0.5,0-2.1,0-2.6,0v0.9c0,2.9,0,3.2,0.2,3.3c0,0,0.2,0.2,0.3,0.2c0.5,0,0.9,0,1.5,0
		c1.4,0,2.1-0.2,2.7-0.3c-0.2,0.5-0.3,1.2-0.5,1.7c0,0-0.3,0-0.9,0c-2.1,0-3.3-0.2-4.3-0.2c-0.6,0-1.1,0-1.4,0
		c0-0.6,0.2-2.3,0.2-4.6v-2.7H49.7z"/>
	<path class="st0" d="M67.6,21.4c-0.5,1.2-1.1,2.7-1.2,3.5c-0.2,0-0.5,0-0.9,0c-0.4,0-1.1,0-1.2,0c0.5-0.9,1.1-2.3,1.8-4.1l3.2-7.5
		c0.3-0.6,0.3-0.8,0.5-0.8s0.2,0.2,0.5,0.8c0.2,0.5,1.8,4,3.2,7.2c0.8,1.7,1.7,3.7,2.1,4.3c-0.5,0-0.8,0-1.1,0c-0.6,0-1.2,0-1.5,0
		c-0.3-0.8-0.9-2.4-1.4-3.5L67.6,21.4z M71.1,20.1l-1.5-4l-1.5,4H71.1z"/>
	<path class="st0" d="M84.3,13.1c0.6,0,1.2,0,1.5,0c-0.2,0.6-0.2,2.4-0.2,4.6v2.1c0,2,0.5,2.7,1.1,3.3c0.8,0.6,1.5,0.6,2.1,0.6
		c0.6,0,1.5-0.2,2-0.8c0.8-0.8,0.9-1.8,0.9-3.8v-1.7c0-2.3-0.2-4-0.2-4.6c0.2,0,0.6,0,0.9,0c0.5,0,0.9,0,1.1,0
		c-0.2,0.6-0.2,2.4-0.2,4.6v1.7c0,1.8-0.2,3.7-1.5,4.9c-0.9,0.8-2.1,1.1-3.2,1.1c-1.2,0-2.6-0.3-3.5-1.1c-0.8-0.8-1.4-1.8-1.4-4.1
		v-2.6c0-2.3-0.2-4.1-0.2-4.6C83.6,12.9,84,13.1,84.3,13.1z"/>
</g>
<g>
	<path class="st0" d="M0.5,44.1c0-4.4-0.2-6.8-0.3-7.8c0.5,0,1.4,0,2.1,0h6.2c0.8,0,2,0,2.4-0.2c-0.2,0.5-0.3,1.7-0.3,3
		c-0.5-0.3-1.1-0.5-2.4-0.5c-0.9,0-2.6-0.2-4.3-0.2c0,0-0.2,0-0.2,0.2v5.9c0,0.2,0,0.2,0.2,0.2c0.5,0,3.2,0,4.1,0
		c1.5,0,2.1-0.2,2.4-0.3c-0.2,0.9-0.3,2.3-0.3,3c-0.5-0.3-0.9-0.5-2-0.5c-0.9,0-3.7-0.2-4.3-0.2c0,0-0.2,0-0.2,0.2v1.5
		c0,4.7,0,5.5,0.2,5.5c0.2,0.2,0.3,0.2,0.6,0.2c0.8,0.2,1.4,0.2,2.6,0.2c2.3,0,3.7-0.2,4.6-0.6c-0.3,0.9-0.5,2.1-0.6,2.7
		c-0.2,0.2-0.5,0.2-1.5,0.2c-3.7,0-5.6-0.2-7.2-0.2c-1.1,0-1.8,0-2.3,0.2c0.2-0.9,0.3-3.8,0.3-7.8v-4.7H0.5z"/>
	<path class="st0" d="M15.7,56.4c-0.8,0-1.7,0-2.1,0.2c0.5-0.5,1.5-1.8,3-4l3.3-4.9l-3-4.7c-1.2-1.8-2.1-3-2.9-3.7
		c0.6,0,1.5,0,2.4,0s1.5,0,2-0.2c0.5,1.1,2.3,4.1,3.5,5.9c0.8-0.9,1.7-2.3,1.8-2.7c0.8-1.2,1.5-2.6,1.7-3.2c0.2,0,0.8,0,1.4,0
		c0.9,0,2-0.2,2.3-0.2c-0.6,0.6-1.7,2-2.6,3.2l-3.3,4.6c0.6,1.1,1.8,3,2.7,4.3c1.7,2.4,3.2,4.4,3.8,5c-0.5,0-1.4,0-2,0
		c-0.8,0-2.3,0-2.7,0.2c-0.2-0.3-1.2-2.4-1.4-2.9c-0.9-1.7-1.4-2.4-2.4-4.1l-2.6,4.1c-0.8,1.2-1.4,2.4-1.5,2.7
		C16.8,56.4,16.5,56.4,15.7,56.4z"/>
	<path class="st0" d="M33.7,54.3c-2.3-2-2.9-4.6-2.9-6.7c0-1.7,0.5-4.3,2.7-6.2c1.8-1.5,4.1-2.4,7.5-2.4c3.2,0,5,0.6,6.1,0.9
		c-0.2,0.6-0.5,2-0.5,3.2c-1.1-1.1-3-2-5.9-2c-2.1,0-3.5,0.6-4.4,1.4c-1.5,1.2-2,3-2,4.9c0,3.7,2.3,7.2,7.5,7.2c2,0,3.8-0.3,5.2-1.2
		c-0.2,0.6-0.5,2.1-0.6,2.9c-0.9,0.3-2.9,0.8-5,0.8C38.6,56.7,35.8,56.1,33.7,54.3z"/>
	<path class="st0" d="M50.7,45.9c0-3.7-0.2-5.8-0.3-6.5c0.5,0,1.2,0,2,0H58c0.8,0,1.8,0,2.3-0.2c-0.2,0.5-0.2,1.5-0.2,2.7
		c-0.5-0.2-0.9-0.3-2.3-0.5c-0.8,0-2.3-0.2-3.7-0.2c0,0-0.2,0-0.2,0.2v4.7c0,0,0,0.2,0.2,0.2c0.5,0,2.7,0,3.7,0
		c1.4,0,1.8-0.2,2.1-0.2c-0.2,0.8-0.3,2.1-0.3,2.7c-0.5-0.3-0.9-0.3-1.8-0.5c-0.8,0-3-0.2-3.7-0.2c0,0-0.2,0-0.2,0.2v1.1
		c0,4,0,4.4,0.2,4.6s0.3,0.2,0.6,0.2c0.6,0,1.4,0.2,2.3,0.2c2,0,3.2-0.2,4-0.5c-0.3,0.8-0.5,2-0.6,2.6c-0.2,0-0.5,0.2-1.4,0.2
		c-3.2,0-5-0.2-6.4-0.2c-1.1,0-1.8,0-2.1,0c0.2-0.8,0.3-3.2,0.3-6.5v-4.1C50.8,45.9,50.7,45.9,50.7,45.9z"/>
	<path class="st0" d="M64.9,45.9c0-3.2-0.2-5.8-0.3-6.5c0.3,0,1.1,0,1.5,0c0.9,0,1.8,0,2.1-0.2c-0.2,0.9-0.3,3.3-0.3,6.4v3.8
		c0,4.1,0,4.6,0.2,4.6s0.3,0.2,0.6,0.2c0.5,0,1.2,0.2,2.3,0.2c2.1,0,3.5-0.2,4.3-0.6c-0.3,0.6-0.6,2-0.8,2.6c-0.2,0-0.5,0-1.7,0
		c-3.5,0-4.7-0.2-6.5-0.2c-0.9,0-1.4,0-1.8,0c0.2-0.8,0.3-3.2,0.3-6.5V46L64.9,45.9L64.9,45.9z"/>
	<path class="st0" d="M78.4,45.9c0-3.2-0.2-5.8-0.3-6.5c0.3,0,1.1,0,1.5,0c0.9,0,1.8,0,2.1-0.2c-0.2,0.9-0.3,3.3-0.3,6.4v3.8
		c0,4.1,0,4.6,0.2,4.6s0.3,0.2,0.6,0.2c0.5,0,1.2,0.2,2.3,0.2c2.1,0,3.5-0.2,4.3-0.6c-0.3,0.6-0.6,2-0.8,2.6c-0.2,0-0.5,0-1.7,0
		c-3.5,0-4.7-0.2-6.5-0.2c-0.9,0-1.4,0-1.8,0c0.2-0.8,0.3-3.2,0.3-6.5V46L78.4,45.9L78.4,45.9z"/>
	<path class="st0" d="M91.8,45.9c0-3.7-0.2-5.8-0.3-6.5c0.5,0,1.2,0,2,0h5.6c0.8,0,1.8,0,2.3-0.2c-0.2,0.5-0.2,1.5-0.2,2.7
		c-0.5-0.2-0.9-0.3-2.3-0.5c-0.8,0-2.3-0.2-3.7-0.2c0,0-0.2,0-0.2,0.2v4.7c0,0,0,0.2,0.2,0.2c0.5,0,2.7,0,3.7,0
		c1.4,0,1.8-0.2,2.1-0.2c-0.2,0.8-0.3,2.1-0.3,2.7c-0.5-0.3-0.9-0.3-1.8-0.5c-0.8,0-3-0.2-3.7-0.2c0,0-0.2,0-0.2,0.2v1.1
		c0,4,0,4.4,0.2,4.6s0.3,0.2,0.6,0.2c0.6,0,1.4,0.2,2.3,0.2c2,0,3.2-0.2,4-0.5c-0.3,0.8-0.5,2-0.6,2.6c-0.2,0-0.5,0.2-1.4,0.2
		c-3.2,0-5-0.2-6.4-0.2c-1.1,0-1.8,0-2.1,0c0.2-0.8,0.3-3.2,0.3-6.5L91.8,45.9C91.9,45.9,91.8,45.9,91.8,45.9z"/>
	<path class="st0" d="M107.5,56.4c-0.3,0-1.5,0-1.8,0.2c0.2-2.1,0.3-12.2,0.3-16.1c0-1.2,0-1.2,0.2-1.2s0.3,0.2,0.8,0.6
		c2.7,2.4,9,8.8,11.9,11c0-2.1-0.2-8.2-0.3-11.3c0.3,0,0.9,0.2,1.4,0.2c0.8,0,1.7,0,1.8-0.2c-0.2,1.4-0.5,7.6-0.5,12.6
		c0,1.2,0,3,0,3.7c0,1.1,0,1.2-0.3,1.2c-0.2,0-0.8-0.3-2.4-2c-2.4-2.1-7.6-7.5-10-9.7c0,4.4,0.2,9.6,0.5,11.3
		C108.5,56.4,107.9,56.4,107.5,56.4z"/>
	<path class="st0" d="M128.8,54.3c-2.3-2-2.9-4.6-2.9-6.7c0-1.7,0.5-4.3,2.7-6.2c1.8-1.5,4.1-2.4,7.5-2.4c3.2,0,5,0.6,6.1,0.9
		c-0.2,0.6-0.5,2-0.5,3.2c-1.1-1.1-3-2-5.9-2c-2.1,0-3.5,0.6-4.4,1.4c-1.5,1.2-2,3-2,4.9c0,3.7,2.3,7.2,7.5,7.2c2,0,3.8-0.3,5.2-1.2
		c-0.2,0.6-0.5,2.1-0.6,2.9c-0.9,0.3-2.9,0.8-5,0.8C133.6,56.7,130.9,56.1,128.8,54.3z"/>
	<path class="st0" d="M145.8,45.9c0-3.7-0.2-5.8-0.3-6.5c0.5,0,1.2,0,2,0h5.6c0.8,0,1.8,0,2.3-0.2c-0.2,0.5-0.2,1.5-0.2,2.7
		c-0.5-0.2-0.9-0.3-2.3-0.5c-0.8,0-2.3-0.2-3.7-0.2c0,0-0.2,0-0.2,0.2v4.7c0,0,0,0.2,0.2,0.2c0.5,0,2.7,0,3.7,0
		c1.4,0,1.8-0.2,2.1-0.2c-0.2,0.8-0.3,2.1-0.3,2.7c-0.5-0.3-0.9-0.3-1.8-0.5c-0.8,0-3-0.2-3.7-0.2c0,0-0.2,0-0.2,0.2v1.1
		c0,4,0,4.4,0.2,4.6s0.3,0.2,0.6,0.2c0.6,0,1.4,0.2,2.3,0.2c2,0,3.2-0.2,4-0.5c-0.3,0.8-0.5,2-0.6,2.6c-0.2,0-0.5,0.2-1.4,0.2
		c-3.2,0-5-0.2-6.4-0.2c-1.1,0-1.8,0-2.1,0c0.2-0.8,0.3-3.2,0.3-6.5v-4.1C145.9,45.9,145.8,45.9,145.8,45.9z"/>
</g>
<g>
	<path class="st1" d="M95.8,71.9H64v5.2h31.8V71.9z"/>
	<path class="st0" d="M64,71.9H32.2v5.2H64V71.9z"/>
	<path class="st2" d="M32,71.9H0.2v5.2H32V71.9z"/>
</g>
</svg>
