<svg width="202" height="50" viewBox="0 0 202 50" fill="none" xmlns="http://www.w3.org/2000/svg">
<path d="M202 44.5503H153.586V48.5503H202V44.5503Z" fill="#E42328"/>
<path d="M153.586 44.5503H104.415V48.5503H153.586V44.5503Z" fill="white"/>
<path d="M104.415 44.5503L56.0001 44.5503V48.5503L104.415 48.5503V44.5503Z" fill="#253784"/>
<circle cx="24.9999" cy="24.9999" r="24.9999" fill="#C11627"/>
<path d="M47.215 25.1661C47.215 37.593 37.3062 47.667 25.083 47.667C12.8598 47.667 2.9509 37.593 2.9509 25.1661C2.9509 12.7392 12.8598 2.66516 25.083 2.66516C37.3062 2.66516 47.215 12.7392 47.215 25.1661Z" fill="#C11627"/>
<path fill-rule="evenodd" clip-rule="evenodd" d="M48.3217 25.1661C48.3217 38.1869 37.9345 48.7737 25.083 48.7737C12.2314 48.7737 1.8443 38.1869 1.8443 25.1661C1.8443 12.1454 12.2314 1.55859 25.083 1.55859C37.9345 1.55859 48.3217 12.1454 48.3217 25.1661ZM25.083 47.6671C37.3062 47.6671 47.2151 37.5931 47.2151 25.1661C47.2151 12.7392 37.3062 2.6652 25.083 2.6652C12.8598 2.6652 2.9509 12.7392 2.9509 25.1661C2.9509 37.5931 12.8598 47.6671 25.083 47.6671Z" fill="white"/>
<circle cx="25.0002" cy="24.9997" r="19.4444" fill="white"/>
<path d="M25.241 4.93848C14.2346 4.93848 5.32687 13.8462 5.32687 24.8526C5.32687 35.0662 13.022 43.5076 22.9558 44.6735C22.8159 43.8807 21.0437 32.4545 21.0437 32.4079C21.0437 32.3612 21.0437 32.3146 21.1369 32.3146H22.3495C22.5361 32.3146 22.5361 32.1747 22.5827 32.1281L24.7747 20.5154C24.7747 20.5154 24.7747 20.5154 24.7747 20.4687C24.8213 20.2355 24.5881 20.1889 24.5881 20.1889C23.4222 20.1889 19.0383 20.1889 19.0383 20.1889C19.0383 20.1889 18.7584 20.1889 18.8517 19.9557C18.8517 19.9557 20.6706 9.0892 20.8105 8.15645C20.8105 8.10982 20.8571 8.06318 20.9038 8.06318H26.8267C26.92 8.06318 26.8733 8.15645 26.8733 8.15645L26.6868 8.90265H22.2096L21.4168 13.3798C21.4168 13.4731 21.4168 13.6597 21.6499 13.6597H25.5208L25.3343 14.4059C25.3343 14.4059 25.3343 14.4059 25.2877 14.4059H21.3235C21.1369 14.4059 21.0903 14.5458 21.0903 14.5924L20.2975 19.1162H24.9146C25.0078 19.1162 25.0078 19.1629 25.0078 19.1629L24.728 19.8624C24.6814 20.049 24.8679 20.1423 24.9146 20.1423H26.0805C29.485 19.9557 30.7442 21.6346 30.7909 23.267C30.8375 24.9925 29.485 26.7181 27.433 26.8114C26.8267 26.858 26.3137 26.6248 26.1738 26.6248L26.1271 26.4383C30.3245 26.9047 31.4904 20.4687 25.9406 21.2149L23.7953 32.3612H22.5361C22.3495 32.3612 22.3495 32.5012 22.3495 32.5478L23.8885 41.7353C23.8885 41.7353 29.0653 32.3146 29.0653 32.268H30.3245L23.4222 44.6269C23.9818 44.6735 24.5881 44.7201 25.1477 44.7201C36.1542 44.7201 45.0619 35.8124 45.0619 24.806C45.1552 13.8462 36.2474 4.93848 25.241 4.93848Z" fill="#C11627"/>
<path d="M56.2849 8.69586C56.2849 6.55229 56.2849 4.98034 56 4.40872C56.2849 4.40872 56.5698 4.40872 56.8546 4.40872C57.1395 4.40872 58.4215 4.40872 59.1337 4.40872C60.2732 4.40872 61.2702 4.55162 61.9824 4.98034C62.6946 5.40905 63.4068 6.26648 63.4068 7.40972C63.4068 8.69586 62.6946 9.6962 61.5551 10.5536C62.4098 11.8398 63.5493 13.2688 64.4039 14.4121C65.1161 15.1266 65.5434 15.5553 65.8283 15.6982C65.5434 15.8411 64.9737 15.8411 64.5463 15.8411C63.6917 15.8411 63.2644 15.5553 62.6946 15.1266C61.84 14.2691 60.5581 12.2685 59.9883 11.4111C59.9883 11.2681 59.8459 11.2681 59.8459 11.2681C59.561 11.2681 58.7063 11.2681 58.1366 11.2681C58.1366 11.2681 58.1366 11.2681 58.1366 11.4111V11.8398C58.1366 13.6975 58.279 15.1266 58.279 15.8411C58.1366 15.8411 57.7093 15.8411 57.4244 15.8411C56.9971 15.8411 56.4273 15.8411 56.1424 15.8411C56.2849 15.2695 56.2849 13.4117 56.2849 11.554V8.69586ZM58.1366 9.6962C58.1366 9.8391 58.1366 9.8391 58.1366 9.6962C58.4215 9.98201 58.9912 9.982 59.7034 9.982C60.1307 9.982 60.4156 9.982 60.558 9.8391C60.9854 9.41039 61.5551 8.83877 61.5551 7.83843C61.5551 6.26648 60.4156 5.40905 59.1337 5.40905C58.7063 5.40905 58.4215 5.40905 58.1366 5.40905C58.1366 5.40905 58.1366 5.40905 58.1366 5.55196V9.6962Z" fill="black"/>
<path d="M73.2351 8.69586C73.2351 6.26648 73.0927 4.83743 73.0927 4.40872C73.3776 4.40872 73.8049 4.40872 74.2322 4.40872H77.7932C78.2205 4.40872 78.9327 4.40872 79.2176 4.26581C79.2176 4.55162 79.0751 5.26615 79.0751 5.98067C78.7902 5.83777 78.5054 5.69486 77.6507 5.69486C77.2234 5.69486 76.2263 5.69486 75.2293 5.69486V9.12458C75.5141 9.12458 77.081 9.12458 77.5083 9.12458C78.3629 9.12458 78.6478 8.98167 78.9327 8.98167C78.7902 9.41039 78.7902 10.2678 78.7902 10.6965C78.5054 10.5536 78.2205 10.4107 77.6507 10.4107C77.2234 10.4107 75.6566 10.4107 75.2293 10.4107V11.2681C75.2293 13.9833 75.2293 14.2691 75.3717 14.4121C75.3717 14.4121 75.5142 14.555 75.6566 14.555C76.0839 14.555 76.5112 14.555 77.081 14.555C78.3629 14.555 79.0751 14.4121 79.6449 14.2691C79.5024 14.6979 79.36 15.4124 79.2176 15.8411C79.2176 15.8411 78.9327 15.8411 78.3629 15.8411C76.3688 15.8411 75.2293 15.6982 74.3746 15.6982C73.8049 15.6982 73.3776 15.6982 73.0927 15.6982C73.0927 15.1266 73.2351 13.5546 73.2351 11.4111V8.69586ZM77.7932 0.550293C77.9356 0.836102 78.5054 1.40772 78.7902 1.69353C78.3629 1.83643 76.5112 2.97967 75.6566 3.55129L75.0868 2.83677L77.7932 0.550293Z" fill="black"/>
<path d="M87.1941 13.1259C87.6215 13.6975 88.761 14.4121 89.9005 14.4121C91.1824 14.4121 91.7522 13.6975 91.7522 12.8401C91.7522 12.1256 91.4673 11.554 90.3278 10.8394L89.6156 10.4107C87.9063 9.26748 87.6215 8.26715 87.6215 7.26681C87.6215 5.55196 88.9034 4.26581 91.04 4.26581C91.6098 4.26581 92.1795 4.40872 92.6068 4.40872C93.1766 4.55162 93.4615 4.55162 93.6039 4.55162C93.6039 4.69453 93.4615 5.69486 93.4615 6.55229C93.1766 6.26648 92.4644 5.55196 91.1824 5.55196C90.1854 5.55196 89.4732 6.26648 89.4732 6.98101C89.4732 7.69553 89.6156 8.12424 90.7551 8.98167L91.3249 9.12458C93.1766 10.2678 93.6039 11.2681 93.6039 12.4114C93.6039 13.2688 93.1766 14.4121 92.1795 15.1266C91.4673 15.5553 90.4702 15.8411 89.758 15.8411C88.761 15.8411 87.6215 15.5553 87.0517 15.1266C87.1942 14.9837 87.3366 13.8404 87.1941 13.1259Z" fill="black"/>
<path d="M102.293 8.69586C102.293 6.26648 102.15 4.83743 102.15 4.40872C102.435 4.40872 102.862 4.40872 103.29 4.40872H106.851C107.278 4.40872 107.99 4.40872 108.275 4.26581C108.275 4.55162 108.133 5.26615 108.133 5.98067C107.848 5.83777 107.563 5.69486 106.708 5.69486C106.281 5.69486 105.284 5.69486 104.287 5.69486V9.12458C104.572 9.12458 106.139 9.12458 106.566 9.12458C107.42 9.12458 107.705 8.98167 107.99 8.98167C107.848 9.41039 107.848 10.2678 107.848 10.6965C107.563 10.5536 107.278 10.4107 106.708 10.4107C106.281 10.4107 104.714 10.4107 104.287 10.4107V11.2681C104.287 13.9833 104.287 14.2691 104.429 14.4121C104.429 14.4121 104.572 14.555 104.714 14.555C105.141 14.555 105.569 14.555 106.139 14.555C107.42 14.555 108.133 14.4121 108.702 14.2691C108.56 14.6979 108.418 15.4124 108.275 15.8411C108.275 15.8411 107.99 15.8411 107.42 15.8411C105.426 15.8411 104.287 15.6982 103.432 15.6982C102.862 15.6982 102.435 15.6982 102.15 15.6982C102.15 15.1266 102.293 13.5546 102.293 11.4111V8.69586Z" fill="black"/>
<path d="M119.1 12.2685C118.673 13.4117 118.103 14.8408 117.961 15.5553C117.819 15.5553 117.534 15.5553 117.106 15.5553C116.679 15.5553 116.109 15.5553 115.967 15.5553C116.394 14.6979 116.964 13.4117 117.676 11.6969L120.667 4.69453C120.952 4.12291 120.952 3.98001 121.095 3.98001C121.237 3.98001 121.237 4.12291 121.522 4.69453C121.664 5.12324 123.231 8.41005 124.513 11.4111C125.225 12.983 126.08 14.8408 126.507 15.4124C126.08 15.4124 125.795 15.4124 125.51 15.4124C124.94 15.4124 124.371 15.4124 124.086 15.4124C123.801 14.6979 123.231 13.1259 122.804 12.1256L119.1 12.2685ZM122.377 10.9823L120.952 7.26681L119.528 10.9823H122.377Z" fill="black"/>
<path d="M134.769 4.40872C135.339 4.40872 135.908 4.40872 136.193 4.40872C136.051 4.98034 136.051 6.6952 136.051 8.69586V10.6965C136.051 12.5543 136.478 13.2688 137.048 13.8404C137.76 14.4121 138.472 14.4121 139.042 14.4121C139.612 14.4121 140.466 14.2691 140.894 13.6975C141.606 12.983 141.748 11.9827 141.748 10.1249V8.55296C141.748 6.40938 141.606 4.83743 141.606 4.26581C141.748 4.26581 142.176 4.26581 142.46 4.26581C142.888 4.26581 143.315 4.26581 143.458 4.26581C143.315 4.83743 143.315 6.55229 143.315 8.55296V10.1249C143.315 11.8398 143.173 13.5546 141.891 14.6979C141.036 15.4124 139.897 15.6982 138.9 15.6982C137.76 15.6982 136.478 15.4124 135.623 14.6979C134.911 13.9833 134.341 12.983 134.341 10.8394V8.41005C134.341 6.26648 134.199 4.55163 134.199 4.12291C134.057 4.26582 134.484 4.40872 134.769 4.40872Z" fill="black"/>
<path d="M56.2849 27.4034C56.2849 23.2592 56.1425 20.9727 56 20.1153C56.4273 20.1153 57.282 20.1153 57.9942 20.1153H63.8342C64.5464 20.1153 65.6859 20.1152 66.1132 19.9723C65.9707 20.4011 65.8283 21.5443 65.8283 22.8304C65.401 22.5446 64.8312 22.4017 63.5493 22.4017C62.6946 22.4017 61.1278 22.2588 59.561 22.2588C59.561 22.2588 59.4185 22.2588 59.4185 22.4017V27.975C59.4185 28.1179 59.4185 28.1179 59.561 28.1179C59.9883 28.1179 62.5522 28.1179 63.4068 28.1179C64.8312 28.1179 65.401 27.975 65.6859 27.8321C65.5434 28.6895 65.401 29.9757 65.401 30.6902C64.9737 30.4044 64.5464 30.2615 63.5493 30.2615C62.6946 30.2615 60.1307 30.1186 59.561 30.1186C59.561 30.1186 59.4185 30.1186 59.4185 30.2615V31.6905C59.4185 36.1206 59.4185 36.8351 59.561 36.8351C59.7034 36.978 59.8459 36.978 60.1307 36.978C60.8429 37.1209 61.4127 37.1209 62.5522 37.1209C64.6888 37.1209 65.9707 36.978 66.8254 36.5493C66.5405 37.4067 66.3981 38.55 66.2556 39.1216C66.1132 39.2645 65.8283 39.2645 64.8312 39.2645C61.4127 39.2645 59.561 39.1216 58.1366 39.1216C57.1395 39.1216 56.4273 39.1216 56 39.2645C56.1425 38.4071 56.2849 35.6919 56.2849 31.9763V27.4034Z" fill="black"/>
<path d="M70.5288 38.9787C69.8166 38.9787 68.962 38.9787 68.5346 39.1216C68.962 38.6929 69.959 37.4067 71.3834 35.4061L74.5171 30.8331L71.6683 26.4031C70.5288 24.6882 69.6742 23.545 68.962 22.9733C69.5317 22.9733 70.3864 22.9733 71.241 22.9733C72.0956 22.9733 72.6654 22.9733 73.0927 22.8304C73.52 23.8308 75.2293 26.6889 76.3688 28.4037C77.081 27.5463 77.9356 26.2602 78.0781 25.8314C78.7903 24.6882 79.5025 23.4021 79.6449 22.8304C79.7873 22.8304 80.3571 22.8304 80.9268 22.8304C81.7815 22.8304 82.7785 22.6875 83.0634 22.6875C82.4937 23.2592 81.4966 24.5453 80.642 25.6885L77.5083 29.9757C78.0781 30.976 79.2176 32.8338 80.0722 33.977C81.639 36.2635 83.0634 38.1212 83.6332 38.6929C83.2059 38.6929 82.3512 38.6929 81.7815 38.6929C81.0693 38.6929 79.6449 38.6929 79.2176 38.8358C79.0751 38.55 78.0781 36.5493 77.9356 36.1206C77.081 34.5486 76.6537 33.8341 75.6566 32.2622L73.2351 36.1206C72.5229 37.2638 71.9532 38.4071 71.8107 38.6929C71.5259 38.9787 71.241 38.9787 70.5288 38.9787Z" fill="black"/>
<path d="M87.3366 36.978C85.2 35.1202 84.6303 32.6909 84.6303 30.6902C84.6303 29.1182 85.0576 26.6889 87.1942 24.8311C88.9034 23.4021 91.04 22.5446 94.1737 22.5446C97.1649 22.5446 98.8742 23.1163 99.8712 23.4021C99.7288 23.9737 99.4439 25.2598 99.4439 26.4031C98.4468 25.4027 96.5951 24.5453 93.8888 24.5453C91.8946 24.5453 90.6127 25.1169 89.7581 25.8314C88.3337 26.9747 87.9064 28.6895 87.9064 30.4044C87.9064 33.8341 90.0429 37.1209 94.8859 37.1209C96.7376 37.1209 98.4468 36.8351 99.7288 35.9777C99.5863 36.5493 99.3015 37.9783 99.159 38.6929C98.3044 38.9787 96.4527 39.4074 94.4585 39.4074C91.8946 39.2645 89.3307 38.6929 87.3366 36.978Z" fill="black"/>
<path d="M103.29 29.1183C103.29 25.6885 103.147 23.6879 103.005 22.9733C103.432 22.9733 104.144 22.9733 104.857 22.9733H110.127C110.839 22.9733 111.836 22.9733 112.263 22.8304C112.121 23.2592 112.121 24.2595 112.121 25.4027C111.694 25.2598 111.266 25.1169 109.984 24.974C109.272 24.974 107.848 24.8311 106.566 24.8311C106.566 24.8311 106.423 24.8311 106.423 24.974V29.4041C106.423 29.4041 106.423 29.547 106.566 29.547C106.993 29.547 109.13 29.547 109.984 29.547C111.266 29.547 111.694 29.4041 111.979 29.4041C111.836 30.1186 111.694 31.4047 111.694 31.9763C111.266 31.6905 110.839 31.6905 109.984 31.5476C109.272 31.5476 107.136 31.4047 106.566 31.4047C106.566 31.4047 106.423 31.4047 106.423 31.5476V32.548C106.423 36.2635 106.423 36.6922 106.566 36.8351C106.708 36.978 106.851 36.978 107.136 36.978C107.705 36.978 108.418 37.1209 109.272 37.1209C111.124 37.1209 112.263 36.978 112.976 36.6922C112.691 37.4067 112.548 38.55 112.406 39.1216C112.263 39.1216 111.979 39.2645 111.124 39.2645C108.133 39.2645 106.423 39.1216 105.141 39.1216C104.144 39.1216 103.432 39.1216 103.147 39.1216C103.29 38.4071 103.432 36.1206 103.432 32.9767V29.1183H103.29Z" fill="black"/>
<path d="M116.537 29.1183C116.537 26.1173 116.394 23.6879 116.252 22.9733C116.537 22.9733 117.249 22.9733 117.676 22.9733C118.531 22.9733 119.385 22.9733 119.67 22.8304C119.528 23.6879 119.385 25.9743 119.385 28.8324V32.4051C119.385 36.2635 119.385 36.6922 119.528 36.6922C119.67 36.6922 119.813 36.8351 120.098 36.8351C120.525 36.8351 121.237 36.978 122.234 36.978C124.228 36.978 125.51 36.8351 126.222 36.4064C125.938 36.978 125.653 38.2642 125.51 38.8358C125.368 38.8358 125.083 38.8358 123.943 38.8358C120.667 38.8358 119.528 38.6929 117.819 38.6929C116.964 38.6929 116.537 38.6929 116.109 38.6929C116.252 37.9783 116.394 35.6919 116.394 32.548V29.1183H116.537Z" fill="black"/>
<path d="M129.214 29.1183C129.214 26.1173 129.071 23.6879 128.929 22.9733C129.214 22.9733 129.926 22.9733 130.353 22.9733C131.208 22.9733 132.062 22.9733 132.347 22.8304C132.205 23.6879 132.062 25.9743 132.062 28.8324V32.4051C132.062 36.2635 132.062 36.6922 132.205 36.6922C132.347 36.6922 132.49 36.8351 132.775 36.8351C133.202 36.8351 133.914 36.978 134.911 36.978C136.905 36.978 138.187 36.8351 138.9 36.4064C138.615 36.978 138.33 38.2642 138.187 38.8358C138.045 38.8358 137.76 38.8358 136.62 38.8358C133.344 38.8358 132.205 38.6929 130.496 38.6929C129.641 38.6929 129.214 38.6929 128.786 38.6929C128.929 37.9783 129.071 35.6919 129.071 32.548V29.1183H129.214Z" fill="black"/>
<path d="M141.748 29.1183C141.748 25.6885 141.606 23.6879 141.463 22.9733C141.891 22.9733 142.603 22.9733 143.315 22.9733H148.585C149.298 22.9733 150.295 22.9733 150.722 22.8304C150.58 23.2592 150.58 24.2595 150.58 25.4027C150.152 25.2598 149.725 25.1169 148.443 24.974C147.731 24.974 146.306 24.8311 145.024 24.8311C145.024 24.8311 144.882 24.8311 144.882 24.974V29.4041C144.882 29.4041 144.882 29.547 145.024 29.547C145.452 29.547 147.588 29.547 148.443 29.547C149.725 29.547 150.152 29.4041 150.437 29.4041C150.295 30.1186 150.152 31.4047 150.152 31.9763C149.725 31.6905 149.298 31.6905 148.443 31.5476C147.731 31.5476 145.594 31.4047 145.024 31.4047C145.024 31.4047 144.882 31.4047 144.882 31.5476V32.548C144.882 36.2635 144.882 36.6922 145.024 36.8351C145.167 36.978 145.309 36.978 145.594 36.978C146.164 36.978 146.876 37.1209 147.731 37.1209C149.582 37.1209 150.722 36.978 151.434 36.6922C151.149 37.4067 151.007 38.55 150.864 39.1216C150.722 39.1216 150.437 39.2645 149.582 39.2645C146.591 39.2645 144.882 39.1216 143.6 39.1216C142.603 39.1216 141.891 39.1216 141.606 39.1216C141.748 38.4071 141.891 36.1206 141.891 32.9767V29.1183H141.748Z" fill="black"/>
<path d="M156.42 38.9787C156.135 38.9787 154.995 38.9787 154.71 39.1216C154.853 37.1209 154.995 27.6892 154.995 23.9737C154.995 22.8304 154.995 22.8304 155.138 22.8304C155.28 22.8304 155.422 22.9733 155.85 23.4021C158.414 25.6885 164.254 31.6905 166.96 33.6912C166.96 31.6905 166.818 25.9743 166.675 23.1162C166.96 23.1162 167.53 23.2592 167.957 23.2592C168.669 23.2592 169.524 23.2592 169.666 23.1162C169.524 24.4024 169.239 30.2615 169.239 34.9773C169.239 36.1206 169.239 37.8354 169.239 38.4071C169.239 39.4074 169.239 39.5503 168.954 39.5503C168.812 39.5503 168.242 39.2645 166.675 37.6925C164.396 35.6919 159.553 30.6902 157.274 28.5466C157.274 32.6909 157.417 37.5496 157.701 39.1216C157.417 38.9787 156.847 38.9787 156.42 38.9787Z" fill="black"/>
<path d="M176.361 36.978C174.224 35.1202 173.655 32.6909 173.655 30.6902C173.655 29.1182 174.082 26.6889 176.219 24.8311C177.928 23.4021 180.064 22.5446 183.198 22.5446C186.189 22.5446 187.899 23.1163 188.896 23.4021C188.753 23.9737 188.468 25.2598 188.468 26.4031C187.471 25.4027 185.62 24.5453 182.913 24.5453C180.919 24.5453 179.637 25.1169 178.782 25.8314C177.358 26.9747 176.931 28.6895 176.931 30.4044C176.931 33.8341 179.067 37.1209 183.91 37.1209C185.762 37.1209 187.471 36.8351 188.753 35.9777C188.611 36.5493 188.326 37.9783 188.183 38.6929C187.329 38.9787 185.477 39.4074 183.483 39.4074C180.919 39.2645 178.355 38.6929 176.361 36.978Z" fill="black"/>
<path d="M192.314 29.1183C192.314 25.6885 192.172 23.6879 192.029 22.9733C192.457 22.9733 193.169 22.9733 193.881 22.9733H199.151C199.863 22.9733 200.86 22.9733 201.288 22.8304C201.145 23.2592 201.145 24.2595 201.145 25.4027C200.718 25.2598 200.291 25.1169 199.009 24.974C198.297 24.974 196.872 24.8311 195.59 24.8311C195.59 24.8311 195.448 24.8311 195.448 24.974V29.4041C195.448 29.4041 195.448 29.547 195.59 29.547C196.018 29.547 198.154 29.547 199.009 29.547C200.291 29.547 200.718 29.4041 201.003 29.4041C200.86 30.1186 200.718 31.4047 200.718 31.9763C200.291 31.6905 199.863 31.6905 199.009 31.5476C198.297 31.5476 196.16 31.4047 195.59 31.4047C195.59 31.4047 195.448 31.4047 195.448 31.5476V32.548C195.448 36.2635 195.448 36.6922 195.59 36.8351C195.733 36.978 195.875 36.978 196.16 36.978C196.73 36.978 197.442 37.1209 198.297 37.1209C200.148 37.1209 201.288 36.978 202 36.6922C201.715 37.4067 201.573 38.55 201.43 39.1216C201.288 39.1216 201.003 39.2645 200.148 39.2645C197.157 39.2645 195.448 39.1216 194.166 39.1216C193.169 39.1216 192.457 39.1216 192.172 39.1216C192.314 38.4071 192.457 36.1206 192.457 32.9767V29.1183H192.314Z" fill="black"/>
</svg>
