<svg width="202" height="51" viewBox="0 0 202 51" fill="none" xmlns="http://www.w3.org/2000/svg">
<path d="M202 45H153.586V49H202V45Z" fill="#E42328"/>
<path d="M153.586 45H104.415V49H153.586V45Z" fill="white"/>
<path d="M104.415 45L56.0001 45V49L104.415 49V45Z" fill="#253784"/>
<circle cx="24.9999" cy="25.4497" r="24.9999" fill="#C11627"/>
<path d="M47.215 25.6158C47.215 38.0427 37.3062 48.1168 25.083 48.1168C12.8598 48.1168 2.9509 38.0427 2.9509 25.6158C2.9509 13.1889 12.8598 3.11487 25.083 3.11487C37.3062 3.11487 47.215 13.1889 47.215 25.6158Z" fill="#C11627"/>
<path fill-rule="evenodd" clip-rule="evenodd" d="M48.3217 25.6158C48.3217 38.6366 37.9345 49.2234 25.083 49.2234C12.2314 49.2234 1.8443 38.6366 1.8443 25.6158C1.8443 12.5951 12.2314 2.0083 25.083 2.0083C37.9345 2.0083 48.3217 12.5951 48.3217 25.6158ZM25.083 48.1168C37.3062 48.1168 47.2151 38.0428 47.2151 25.6158C47.2151 13.1889 37.3062 3.1149 25.083 3.1149C12.8598 3.1149 2.9509 13.1889 2.9509 25.6158C2.9509 38.0428 12.8598 48.1168 25.083 48.1168Z" fill="white"/>
<circle cx="25.0002" cy="25.4494" r="19.4444" fill="white"/>
<path d="M25.241 5.38818C14.2346 5.38818 5.32687 14.2959 5.32687 25.3023C5.32687 35.5159 13.022 43.9573 22.9558 45.1232C22.8159 44.3304 21.0437 32.9042 21.0437 32.8576C21.0437 32.8109 21.0437 32.7643 21.1369 32.7643H22.3495C22.5361 32.7643 22.5361 32.6244 22.5827 32.5778L24.7747 20.9651C24.7747 20.9651 24.7747 20.9651 24.7747 20.9184C24.8213 20.6852 24.5881 20.6386 24.5881 20.6386C23.4222 20.6386 19.0383 20.6386 19.0383 20.6386C19.0383 20.6386 18.7584 20.6386 18.8517 20.4054C18.8517 20.4054 20.6706 9.53891 20.8105 8.60616C20.8105 8.55952 20.8571 8.51289 20.9038 8.51289H26.8267C26.92 8.51289 26.8733 8.60616 26.8733 8.60616L26.6868 9.35236H22.2096L21.4168 13.8295C21.4168 13.9228 21.4168 14.1094 21.6499 14.1094H25.5208L25.3343 14.8556C25.3343 14.8556 25.3343 14.8556 25.2877 14.8556H21.3235C21.1369 14.8556 21.0903 14.9955 21.0903 15.0421L20.2975 19.5659H24.9146C25.0078 19.5659 25.0078 19.6126 25.0078 19.6126L24.728 20.3121C24.6814 20.4987 24.8679 20.592 24.9146 20.592H26.0805C29.485 20.4054 30.7442 22.0844 30.7909 23.7167C30.8375 25.4422 29.485 27.1678 27.433 27.2611C26.8267 27.3077 26.3137 27.0746 26.1738 27.0746L26.1271 26.888C30.3245 27.3544 31.4904 20.9184 25.9406 21.6646L23.7953 32.8109H22.5361C22.3495 32.8109 22.3495 32.9509 22.3495 32.9975L23.8885 42.1851C23.8885 42.1851 29.0653 32.7643 29.0653 32.7177H30.3245L23.4222 45.0766C23.9818 45.1232 24.5881 45.1698 25.1477 45.1698C36.1542 45.1698 45.0619 36.2621 45.0619 25.2557C45.1552 14.2959 36.2474 5.38818 25.241 5.38818Z" fill="#C11627"/>
<path d="M56.2849 9.14557C56.2849 7.002 56.2849 5.43005 56 4.85843C56.2849 4.85843 56.5698 4.85843 56.8546 4.85843C57.1395 4.85843 58.4215 4.85843 59.1337 4.85843C60.2732 4.85843 61.2702 5.00133 61.9824 5.43004C62.6946 5.85876 63.4068 6.71619 63.4068 7.85943C63.4068 9.14557 62.6946 10.1459 61.5551 11.0033C62.4098 12.2895 63.5493 13.7185 64.4039 14.8618C65.1161 15.5763 65.5434 16.005 65.8283 16.1479C65.5434 16.2908 64.9737 16.2908 64.5463 16.2908C63.6917 16.2908 63.2644 16.005 62.6946 15.5763C61.84 14.7189 60.5581 12.7182 59.9883 11.8608C59.9883 11.7179 59.8459 11.7179 59.8459 11.7179C59.561 11.7179 58.7063 11.7179 58.1366 11.7179C58.1366 11.7179 58.1366 11.7179 58.1366 11.8608V12.2895C58.1366 14.1472 58.279 15.5763 58.279 16.2908C58.1366 16.2908 57.7093 16.2908 57.4244 16.2908C56.9971 16.2908 56.4273 16.2908 56.1424 16.2908C56.2849 15.7192 56.2849 13.8614 56.2849 12.0037V9.14557ZM58.1366 10.1459C58.1366 10.2888 58.1366 10.2888 58.1366 10.1459C58.4215 10.4317 58.9912 10.4317 59.7034 10.4317C60.1307 10.4317 60.4156 10.4317 60.558 10.2888C60.9854 9.86009 61.5551 9.28847 61.5551 8.28814C61.5551 6.71619 60.4156 5.85876 59.1337 5.85876C58.7063 5.85876 58.4215 5.85876 58.1366 5.85876C58.1366 5.85876 58.1366 5.85876 58.1366 6.00167V10.1459Z" fill="white"/>
<path d="M73.2351 9.14557C73.2351 6.71619 73.0927 5.28714 73.0927 4.85843C73.3776 4.85843 73.8049 4.85843 74.2322 4.85843H77.7932C78.2205 4.85843 78.9327 4.85843 79.2176 4.71552C79.2176 5.00133 79.0751 5.71586 79.0751 6.43038C78.7902 6.28747 78.5054 6.14457 77.6507 6.14457C77.2234 6.14457 76.2263 6.14457 75.2293 6.14457V9.57428C75.5141 9.57428 77.081 9.57428 77.5083 9.57428C78.3629 9.57428 78.6478 9.43138 78.9327 9.43138C78.7902 9.86009 78.7902 10.7175 78.7902 11.1462C78.5054 11.0033 78.2205 10.8604 77.6507 10.8604C77.2234 10.8604 75.6566 10.8604 75.2293 10.8604V11.7179C75.2293 14.433 75.2293 14.7189 75.3717 14.8618C75.3717 14.8618 75.5142 15.0047 75.6566 15.0047C76.0839 15.0047 76.5112 15.0047 77.081 15.0047C78.3629 15.0047 79.0751 14.8618 79.6449 14.7189C79.5024 15.1476 79.36 15.8621 79.2176 16.2908C79.2176 16.2908 78.9327 16.2908 78.3629 16.2908C76.3688 16.2908 75.2293 16.1479 74.3746 16.1479C73.8049 16.1479 73.3776 16.1479 73.0927 16.1479C73.0927 15.5763 73.2351 14.0043 73.2351 11.8608V9.14557ZM77.7932 1C77.9356 1.28581 78.5054 1.85743 78.7902 2.14324C78.3629 2.28614 76.5112 3.42938 75.6566 4.001L75.0868 3.28647L77.7932 1Z" fill="white"/>
<path d="M87.1941 13.5756C87.6215 14.1472 88.761 14.8618 89.9005 14.8618C91.1824 14.8618 91.7522 14.1472 91.7522 13.2898C91.7522 12.5753 91.4673 12.0037 90.3278 11.2891L89.6156 10.8604C87.9063 9.71719 87.6215 8.71685 87.6215 7.71652C87.6215 6.00166 88.9034 4.71552 91.04 4.71552C91.6098 4.71552 92.1795 4.85843 92.6068 4.85843C93.1766 5.00133 93.4615 5.00133 93.6039 5.00133C93.6039 5.14424 93.4615 6.14457 93.4615 7.002C93.1766 6.71619 92.4644 6.00167 91.1824 6.00167C90.1854 6.00167 89.4732 6.71619 89.4732 7.43071C89.4732 8.14524 89.6156 8.57395 90.7551 9.43138L91.3249 9.57428C93.1766 10.7175 93.6039 11.7179 93.6039 12.8611C93.6039 13.7185 93.1766 14.8618 92.1795 15.5763C91.4673 16.005 90.4702 16.2908 89.758 16.2908C88.761 16.2908 87.6215 16.005 87.0517 15.5763C87.1942 15.4334 87.3366 14.2901 87.1941 13.5756Z" fill="white"/>
<path d="M102.293 9.14557C102.293 6.71619 102.15 5.28714 102.15 4.85843C102.435 4.85843 102.862 4.85843 103.29 4.85843H106.851C107.278 4.85843 107.99 4.85843 108.275 4.71552C108.275 5.00133 108.133 5.71586 108.133 6.43038C107.848 6.28747 107.563 6.14457 106.708 6.14457C106.281 6.14457 105.284 6.14457 104.287 6.14457V9.57428C104.572 9.57428 106.139 9.57428 106.566 9.57428C107.42 9.57428 107.705 9.43138 107.99 9.43138C107.848 9.86009 107.848 10.7175 107.848 11.1462C107.563 11.0033 107.278 10.8604 106.708 10.8604C106.281 10.8604 104.714 10.8604 104.287 10.8604V11.7179C104.287 14.433 104.287 14.7189 104.429 14.8618C104.429 14.8618 104.572 15.0047 104.714 15.0047C105.141 15.0047 105.569 15.0047 106.139 15.0047C107.42 15.0047 108.133 14.8618 108.702 14.7189C108.56 15.1476 108.418 15.8621 108.275 16.2908C108.275 16.2908 107.99 16.2908 107.42 16.2908C105.426 16.2908 104.287 16.1479 103.432 16.1479C102.862 16.1479 102.435 16.1479 102.15 16.1479C102.15 15.5763 102.293 14.0043 102.293 11.8608V9.14557Z" fill="white"/>
<path d="M119.1 12.7182C118.673 13.8614 118.103 15.2905 117.961 16.005C117.819 16.005 117.534 16.005 117.106 16.005C116.679 16.005 116.109 16.005 115.967 16.005C116.394 15.1476 116.964 13.8614 117.676 12.1466L120.667 5.14424C120.952 4.57262 120.952 4.42971 121.095 4.42971C121.237 4.42971 121.237 4.57262 121.522 5.14424C121.664 5.57295 123.231 8.85976 124.513 11.8608C125.225 13.4327 126.08 15.2905 126.507 15.8621C126.08 15.8621 125.795 15.8621 125.51 15.8621C124.94 15.8621 124.371 15.8621 124.086 15.8621C123.801 15.1476 123.231 13.5756 122.804 12.5753L119.1 12.7182ZM122.377 11.432L120.952 7.71652L119.528 11.432H122.377Z" fill="white"/>
<path d="M134.769 4.85843C135.339 4.85843 135.908 4.85843 136.193 4.85843C136.051 5.43005 136.051 7.1449 136.051 9.14557V11.1462C136.051 13.004 136.478 13.7185 137.048 14.2901C137.76 14.8618 138.472 14.8618 139.042 14.8618C139.612 14.8618 140.466 14.7189 140.894 14.1472C141.606 13.4327 141.748 12.4324 141.748 10.5746V9.00266C141.748 6.85909 141.606 5.28714 141.606 4.71552C141.748 4.71552 142.176 4.71552 142.46 4.71552C142.888 4.71552 143.315 4.71552 143.458 4.71552C143.315 5.28714 143.315 7.002 143.315 9.00266V10.5746C143.315 12.2895 143.173 14.0043 141.891 15.1476C141.036 15.8621 139.897 16.1479 138.9 16.1479C137.76 16.1479 136.478 15.8621 135.623 15.1476C134.911 14.433 134.341 13.4327 134.341 11.2891V8.85976C134.341 6.71619 134.199 5.00133 134.199 4.57262C134.057 4.71552 134.484 4.85843 134.769 4.85843Z" fill="white"/>
<path d="M56.2849 27.8531C56.2849 23.7089 56.1425 21.4224 56 20.565C56.4273 20.565 57.282 20.565 57.9942 20.565H63.8342C64.5464 20.565 65.6859 20.565 66.1132 20.4221C65.9707 20.8508 65.8283 21.994 65.8283 23.2801C65.401 22.9943 64.8312 22.8514 63.5493 22.8514C62.6946 22.8514 61.1278 22.7085 59.561 22.7085C59.561 22.7085 59.4185 22.7085 59.4185 22.8514V28.4247C59.4185 28.5676 59.4185 28.5676 59.561 28.5676C59.9883 28.5676 62.5522 28.5676 63.4068 28.5676C64.8312 28.5676 65.401 28.4247 65.6859 28.2818C65.5434 29.1392 65.401 30.4254 65.401 31.1399C64.9737 30.8541 64.5464 30.7112 63.5493 30.7112C62.6946 30.7112 60.1307 30.5683 59.561 30.5683C59.561 30.5683 59.4185 30.5683 59.4185 30.7112V32.1402C59.4185 36.5703 59.4185 37.2848 59.561 37.2848C59.7034 37.4277 59.8459 37.4277 60.1307 37.4277C60.8429 37.5706 61.4127 37.5706 62.5522 37.5706C64.6888 37.5706 65.9707 37.4277 66.8254 36.999C66.5405 37.8564 66.3981 38.9997 66.2556 39.5713C66.1132 39.7142 65.8283 39.7142 64.8312 39.7142C61.4127 39.7142 59.561 39.5713 58.1366 39.5713C57.1395 39.5713 56.4273 39.5713 56 39.7142C56.1425 38.8568 56.2849 36.1416 56.2849 32.4261V27.8531Z" fill="white"/>
<path d="M70.5288 39.4284C69.8166 39.4284 68.962 39.4284 68.5346 39.5713C68.962 39.1426 69.959 37.8564 71.3834 35.8558L74.5171 31.2828L71.6683 26.8528C70.5288 25.1379 69.6742 23.9947 68.962 23.4231C69.5317 23.4231 70.3864 23.4231 71.241 23.4231C72.0956 23.4231 72.6654 23.423 73.0927 23.2801C73.52 24.2805 75.2293 27.1386 76.3688 28.8534C77.081 27.996 77.9356 26.7099 78.0781 26.2811C78.7903 25.1379 79.5025 23.8518 79.6449 23.2801C79.7873 23.2801 80.3571 23.2801 80.9268 23.2801C81.7815 23.2801 82.7785 23.1372 83.0634 23.1372C82.4937 23.7089 81.4966 24.995 80.642 26.1382L77.5083 30.4254C78.0781 31.4257 79.2176 33.2835 80.0722 34.4267C81.639 36.7132 83.0634 38.571 83.6332 39.1426C83.2059 39.1426 82.3512 39.1426 81.7815 39.1426C81.0693 39.1426 79.6449 39.1426 79.2176 39.2855C79.0751 38.9997 78.0781 36.999 77.9356 36.5703C77.081 34.9983 76.6537 34.2838 75.6566 32.7119L73.2351 36.5703C72.5229 37.7135 71.9532 38.8568 71.8107 39.1426C71.5259 39.4284 71.241 39.4284 70.5288 39.4284Z" fill="white"/>
<path d="M87.3366 37.4277C85.2 35.57 84.6303 33.1406 84.6303 31.1399C84.6303 29.568 85.0576 27.1386 87.1942 25.2808C88.9034 23.8518 91.04 22.9943 94.1737 22.9943C97.1649 22.9943 98.8742 23.566 99.8712 23.8518C99.7288 24.4234 99.4439 25.7095 99.4439 26.8528C98.4468 25.8524 96.5951 24.995 93.8888 24.995C91.8946 24.995 90.6127 25.5666 89.7581 26.2811C88.3337 27.4244 87.9064 29.1392 87.9064 30.8541C87.9064 34.2838 90.0429 37.5706 94.8859 37.5706C96.7376 37.5706 98.4468 37.2848 99.7288 36.4274C99.5863 36.999 99.3015 38.4281 99.159 39.1426C98.3044 39.4284 96.4527 39.8571 94.4585 39.8571C91.8946 39.7142 89.3307 39.1426 87.3366 37.4277Z" fill="white"/>
<path d="M103.29 29.568C103.29 26.1382 103.147 24.1376 103.005 23.4231C103.432 23.4231 104.144 23.4231 104.857 23.4231H110.127C110.839 23.4231 111.836 23.423 112.263 23.2801C112.121 23.7089 112.121 24.7092 112.121 25.8524C111.694 25.7095 111.266 25.5666 109.984 25.4237C109.272 25.4237 107.848 25.2808 106.566 25.2808C106.566 25.2808 106.423 25.2808 106.423 25.4237V29.8538C106.423 29.8538 106.423 29.9967 106.566 29.9967C106.993 29.9967 109.13 29.9967 109.984 29.9967C111.266 29.9967 111.694 29.8538 111.979 29.8538C111.836 30.5683 111.694 31.8544 111.694 32.4261C111.266 32.1402 110.839 32.1402 109.984 31.9973C109.272 31.9973 107.136 31.8544 106.566 31.8544C106.566 31.8544 106.423 31.8544 106.423 31.9973V32.9977C106.423 36.7132 106.423 37.1419 106.566 37.2848C106.708 37.4277 106.851 37.4277 107.136 37.4277C107.705 37.4277 108.418 37.5706 109.272 37.5706C111.124 37.5706 112.263 37.4277 112.976 37.1419C112.691 37.8564 112.548 38.9997 112.406 39.5713C112.263 39.5713 111.979 39.7142 111.124 39.7142C108.133 39.7142 106.423 39.5713 105.141 39.5713C104.144 39.5713 103.432 39.5713 103.147 39.5713C103.29 38.8568 103.432 36.5703 103.432 33.4264V29.568H103.29Z" fill="white"/>
<path d="M116.537 29.568C116.537 26.567 116.394 24.1376 116.252 23.4231C116.537 23.4231 117.249 23.4231 117.676 23.4231C118.531 23.4231 119.385 23.423 119.67 23.2801C119.528 24.1376 119.385 26.424 119.385 29.2821V32.8548C119.385 36.7132 119.385 37.1419 119.528 37.1419C119.67 37.1419 119.813 37.2848 120.098 37.2848C120.525 37.2848 121.237 37.4277 122.234 37.4277C124.228 37.4277 125.51 37.2848 126.222 36.8561C125.938 37.4277 125.653 38.7139 125.51 39.2855C125.368 39.2855 125.083 39.2855 123.943 39.2855C120.667 39.2855 119.528 39.1426 117.819 39.1426C116.964 39.1426 116.537 39.1426 116.109 39.1426C116.252 38.4281 116.394 36.1416 116.394 32.9977V29.568H116.537Z" fill="white"/>
<path d="M129.214 29.568C129.214 26.567 129.071 24.1376 128.929 23.4231C129.214 23.4231 129.926 23.4231 130.353 23.4231C131.208 23.4231 132.062 23.423 132.347 23.2801C132.205 24.1376 132.062 26.424 132.062 29.2821V32.8548C132.062 36.7132 132.062 37.1419 132.205 37.1419C132.347 37.1419 132.49 37.2848 132.775 37.2848C133.202 37.2848 133.914 37.4277 134.911 37.4277C136.905 37.4277 138.187 37.2848 138.9 36.8561C138.615 37.4277 138.33 38.7139 138.187 39.2855C138.045 39.2855 137.76 39.2855 136.62 39.2855C133.344 39.2855 132.205 39.1426 130.496 39.1426C129.641 39.1426 129.214 39.1426 128.786 39.1426C128.929 38.4281 129.071 36.1416 129.071 32.9977V29.568H129.214Z" fill="white"/>
<path d="M141.748 29.568C141.748 26.1382 141.606 24.1376 141.463 23.4231C141.891 23.4231 142.603 23.4231 143.315 23.4231H148.585C149.298 23.4231 150.295 23.423 150.722 23.2801C150.58 23.7089 150.58 24.7092 150.58 25.8524C150.152 25.7095 149.725 25.5666 148.443 25.4237C147.731 25.4237 146.306 25.2808 145.024 25.2808C145.024 25.2808 144.882 25.2808 144.882 25.4237V29.8538C144.882 29.8538 144.882 29.9967 145.024 29.9967C145.452 29.9967 147.588 29.9967 148.443 29.9967C149.725 29.9967 150.152 29.8538 150.437 29.8538C150.295 30.5683 150.152 31.8544 150.152 32.4261C149.725 32.1402 149.298 32.1402 148.443 31.9973C147.731 31.9973 145.594 31.8544 145.024 31.8544C145.024 31.8544 144.882 31.8544 144.882 31.9973V32.9977C144.882 36.7132 144.882 37.1419 145.024 37.2848C145.167 37.4277 145.309 37.4277 145.594 37.4277C146.164 37.4277 146.876 37.5706 147.731 37.5706C149.582 37.5706 150.722 37.4277 151.434 37.1419C151.149 37.8564 151.007 38.9997 150.864 39.5713C150.722 39.5713 150.437 39.7142 149.582 39.7142C146.591 39.7142 144.882 39.5713 143.6 39.5713C142.603 39.5713 141.891 39.5713 141.606 39.5713C141.748 38.8568 141.891 36.5703 141.891 33.4264V29.568H141.748Z" fill="white"/>
<path d="M156.42 39.4284C156.135 39.4284 154.995 39.4284 154.71 39.5713C154.853 37.5706 154.995 28.1389 154.995 24.4234C154.995 23.2802 154.995 23.2801 155.138 23.2801C155.28 23.2801 155.422 23.4231 155.85 23.8518C158.414 26.1382 164.254 32.1402 166.96 34.1409C166.96 32.1402 166.818 26.4241 166.675 23.566C166.96 23.566 167.53 23.7089 167.957 23.7089C168.669 23.7089 169.524 23.7089 169.666 23.566C169.524 24.8521 169.239 30.7112 169.239 35.427C169.239 36.5703 169.239 38.2851 169.239 38.8568C169.239 39.8571 169.239 40 168.954 40C168.812 40 168.242 39.7142 166.675 38.1422C164.396 36.1416 159.553 31.1399 157.274 28.9963C157.274 33.1406 157.417 37.9993 157.701 39.5713C157.417 39.4284 156.847 39.4284 156.42 39.4284Z" fill="white"/>
<path d="M176.361 37.4277C174.224 35.57 173.655 33.1406 173.655 31.1399C173.655 29.568 174.082 27.1386 176.219 25.2808C177.928 23.8518 180.064 22.9943 183.198 22.9943C186.189 22.9943 187.899 23.566 188.896 23.8518C188.753 24.4234 188.468 25.7095 188.468 26.8528C187.471 25.8524 185.62 24.995 182.913 24.995C180.919 24.995 179.637 25.5666 178.782 26.2811C177.358 27.4244 176.931 29.1392 176.931 30.8541C176.931 34.2838 179.067 37.5706 183.91 37.5706C185.762 37.5706 187.471 37.2848 188.753 36.4274C188.611 36.999 188.326 38.4281 188.183 39.1426C187.329 39.4284 185.477 39.8571 183.483 39.8571C180.919 39.7142 178.355 39.1426 176.361 37.4277Z" fill="white"/>
<path d="M192.314 29.568C192.314 26.1382 192.172 24.1376 192.029 23.4231C192.457 23.4231 193.169 23.4231 193.881 23.4231H199.151C199.863 23.4231 200.86 23.423 201.288 23.2801C201.145 23.7089 201.145 24.7092 201.145 25.8524C200.718 25.7095 200.291 25.5666 199.009 25.4237C198.297 25.4237 196.872 25.2808 195.59 25.2808C195.59 25.2808 195.448 25.2808 195.448 25.4237V29.8538C195.448 29.8538 195.448 29.9967 195.59 29.9967C196.018 29.9967 198.154 29.9967 199.009 29.9967C200.291 29.9967 200.718 29.8538 201.003 29.8538C200.86 30.5683 200.718 31.8544 200.718 32.4261C200.291 32.1402 199.863 32.1402 199.009 31.9973C198.297 31.9973 196.16 31.8544 195.59 31.8544C195.59 31.8544 195.448 31.8544 195.448 31.9973V32.9977C195.448 36.7132 195.448 37.1419 195.59 37.2848C195.733 37.4277 195.875 37.4277 196.16 37.4277C196.73 37.4277 197.442 37.5706 198.297 37.5706C200.148 37.5706 201.288 37.4277 202 37.1419C201.715 37.8564 201.573 38.9997 201.43 39.5713C201.288 39.5713 201.003 39.7142 200.148 39.7142C197.157 39.7142 195.448 39.5713 194.166 39.5713C193.169 39.5713 192.457 39.5713 192.172 39.5713C192.314 38.8568 192.457 36.5703 192.457 33.4264V29.568H192.314Z" fill="white"/>
</svg>
