<svg width="129" height="195" viewBox="0 0 129 195" fill="none" xmlns="http://www.w3.org/2000/svg">
<path d="M128.8 0H0V194.6H128.8V0Z" fill="#C10B25"/>
<path d="M64.5 80.5C37.8 80.5 16.2 102.1 16.2 128.8C16.2 153.6 34.9 174 58.9 176.8C58.6 174.9 54.3 147.2 54.3 147.1C54.3 147 54.3 146.9 54.5 146.9H57.4C57.8 146.9 57.9 146.6 58 146.5L63.3 118.4C63.3 118.4 63.3 118.4 63.3 118.3C63.4 117.7 62.9 117.6 62.8 117.6C60 117.6 49.4 117.6 49.3 117.6C49.2 117.6 48.6 117.6 48.8 117C48.8 117 53.2 90.7 53.6 88.4C53.6 88.3 53.7 88.2 53.8 88.2H68.1C68.3 88.2 68.2 88.4 68.2 88.4L67.7 90.2H56.8L54.9 101C54.9 101.2 54.9 101.7 55.5 101.7H64.9L64.5 103.5C64.5 103.5 64.5 103.5 64.4 103.5H54.8C54.3 103.5 54.2 103.8 54.2 104L52.3 115H63.5C63.7 115 63.7 115.1 63.7 115.1L63.3 116.7C63.2 117.2 63.6 117.4 63.8 117.4H66.6C74.9 117 77.9 121 78 125C78.1 129.2 74.8 133.4 69.9 133.6C68.4 133.7 67.2 133.2 66.9 133.1L66.8 132.6C77 133.7 79.8 118.1 66.4 119.9L61.2 146.9H58.2C57.7 146.9 57.7 147.2 57.7 147.4L61.4 169.7C61.4 169.7 73.9 146.9 73.9 146.8H77L60.3 176.8C61.7 176.9 63.1 177 64.5 177C91.2 177 112.8 155.4 112.8 128.7C112.8 102.1 91.2 80.5 64.5 80.5Z" fill="white"/>
<path d="M33.8 23.4C33.8 21.9 33.8 20.8 33.6 20.4C33.8 20.4 34 20.4 34.2 20.4C34.4 20.4 35.3 20.4 35.8 20.4C36.6 20.4 37.3 20.5 37.8 20.8C38.3 21.1 38.8 21.7 38.8 22.5C38.8 23.4 38.3 24.1 37.5 24.7C38.1 25.6 38.9 26.6 39.5 27.4C40 27.9 40.3 28.2 40.5 28.3C40.3 28.4 39.9 28.4 39.6 28.4C39 28.4 38.7 28.2 38.3 27.9C37.7 27.3 36.8 25.9 36.4 25.3C36.4 25.2 36.3 25.2 36.3 25.2C36.1 25.2 35.5 25.2 35.1 25.2C35.1 25.2 35.1 25.2 35.1 25.3V25.6C35.1 26.9 35.2 27.9 35.2 28.4C35.1 28.4 34.8 28.4 34.6 28.4C34.3 28.4 33.9 28.4 33.7 28.4C33.8 28 33.8 26.7 33.8 25.4V23.4ZM35.1 24.1C35.1 24.2 35.1 24.2 35.1 24.1C35.3 24.3 35.7 24.3 36.2 24.3C36.5 24.3 36.7 24.3 36.8 24.2C37.1 23.9 37.5 23.5 37.5 22.8C37.5 21.7 36.7 21.1 35.8 21.1C35.5 21.1 35.3 21.1 35.1 21.1C35.1 21.1 35.1 21.1 35.1 21.2V24.1Z" fill="white"/>
<path d="M45.7 23.4C45.7 21.7 45.6 20.7 45.6 20.4C45.8 20.4 46.1 20.4 46.4 20.4H48.9C49.2 20.4 49.7 20.4 49.9 20.3C49.9 20.5 49.8 21 49.8 21.5C49.6 21.4 49.4 21.3 48.8 21.3C48.5 21.3 47.8 21.3 47.1 21.3V23.7C47.3 23.7 48.4 23.7 48.7 23.7C49.3 23.7 49.5 23.6 49.7 23.6C49.6 23.9 49.6 24.5 49.6 24.8C49.4 24.7 49.2 24.6 48.8 24.6C48.5 24.6 47.4 24.6 47.1 24.6V25.2C47.1 27.1 47.1 27.3 47.2 27.4C47.2 27.4 47.3 27.5 47.4 27.5C47.7 27.5 48 27.5 48.4 27.5C49.3 27.5 49.8 27.4 50.2 27.3C50.1 27.6 50 28.1 49.9 28.4C49.9 28.4 49.7 28.4 49.3 28.4C47.9 28.4 47.1 28.3 46.5 28.3C46.1 28.3 45.8 28.3 45.6 28.3C45.6 27.9 45.7 26.8 45.7 25.3V23.4ZM48.9 17.7C49 17.9 49.4 18.3 49.6 18.5C49.3 18.6 48 19.4 47.4 19.8L47 19.3L48.9 17.7Z" fill="white"/>
<path d="M55.5 26.5C55.8 26.9 56.6 27.4 57.4 27.4C58.3 27.4 58.7 26.9 58.7 26.3C58.7 25.8 58.5 25.4 57.7 24.9L57.2 24.6C56 23.8 55.8 23.1 55.8 22.4C55.8 21.2 56.7 20.3 58.2 20.3C58.6 20.3 59 20.4 59.3 20.4C59.7 20.5 59.9 20.5 60 20.5C60 20.6 59.9 21.3 59.9 21.9C59.7 21.7 59.2 21.2 58.3 21.2C57.6 21.2 57.1 21.7 57.1 22.2C57.1 22.7 57.2 23 58 23.6L58.4 23.7C59.7 24.5 60 25.2 60 26C60 26.6 59.7 27.4 59 27.9C58.5 28.2 57.8 28.4 57.3 28.4C56.6 28.4 55.8 28.2 55.4 27.9C55.5 27.8 55.6 27 55.5 26.5Z" fill="white"/>
<path d="M66.1 23.4C66.1 21.7 66 20.7 66 20.4C66.2 20.4 66.5 20.4 66.8 20.4H69.3C69.6 20.4 70.1 20.4 70.3 20.3C70.3 20.5 70.2 21 70.2 21.5C70 21.4 69.8 21.3 69.2 21.3C68.9 21.3 68.2 21.3 67.5 21.3V23.7C67.7 23.7 68.8 23.7 69.1 23.7C69.7 23.7 69.9 23.6 70.1 23.6C70 23.9 70 24.5 70 24.8C69.8 24.7 69.6 24.6 69.2 24.6C68.9 24.6 67.8 24.6 67.5 24.6V25.2C67.5 27.1 67.5 27.3 67.6 27.4C67.6 27.4 67.7 27.5 67.8 27.5C68.1 27.5 68.4 27.5 68.8 27.5C69.7 27.5 70.2 27.4 70.6 27.3C70.5 27.6 70.4 28.1 70.3 28.4C70.3 28.4 70.1 28.4 69.7 28.4C68.3 28.4 67.5 28.3 66.9 28.3C66.5 28.3 66.2 28.3 66 28.3C66 27.9 66.1 26.8 66.1 25.3V23.4Z" fill="white"/>
<path d="M77.9 25.9C77.6 26.7 77.2 27.7 77.1 28.2C77 28.2 76.8 28.2 76.5 28.2C76.2 28.2 75.8 28.2 75.7 28.2C76 27.6 76.4 26.7 76.9 25.5L79 20.6C79.2 20.2 79.2 20.1 79.3 20.1C79.4 20.1 79.4 20.2 79.6 20.6C79.7 20.9 80.8 23.2 81.7 25.3C82.2 26.4 82.8 27.7 83.1 28.1C82.8 28.1 82.6 28.1 82.4 28.1C82 28.1 81.6 28.1 81.4 28.1C81.2 27.6 80.8 26.5 80.5 25.8L77.9 25.9ZM80.2 25L79.2 22.4L78.2 25H80.2Z" fill="white"/>
<path d="M88.9 20.4C89.3 20.4 89.7 20.4 89.9 20.4C89.8 20.8 89.8 22 89.8 23.4V24.8C89.8 26.1 90.1 26.6 90.5 27C91 27.4 91.5 27.4 91.9 27.4C92.3 27.4 92.9 27.3 93.2 26.9C93.7 26.4 93.8 25.7 93.8 24.4V23.3C93.8 21.8 93.7 20.7 93.7 20.3C93.8 20.3 94.1 20.3 94.3 20.3C94.6 20.3 94.9 20.3 95 20.3C94.9 20.7 94.9 21.9 94.9 23.3V24.4C94.9 25.6 94.8 26.8 93.9 27.6C93.3 28.1 92.5 28.3 91.8 28.3C91 28.3 90.1 28.1 89.5 27.6C89 27.1 88.6 26.4 88.6 24.9V23.2C88.6 21.7 88.5 20.5 88.5 20.2C88.4 20.3 88.7 20.4 88.9 20.4Z" fill="white"/>
<path d="M13.3 40.8C13.3 37.9 13.2 36.3 13.1 35.7C13.4 35.7 14 35.7 14.5 35.7H18.6C19.1 35.7 19.9 35.7 20.2 35.6C20.1 35.9 20 36.7 20 37.6C19.7 37.4 19.3 37.3 18.4 37.3C17.8 37.3 16.7 37.2 15.6 37.2C15.6 37.2 15.5 37.2 15.5 37.3V41.2C15.5 41.3 15.5 41.3 15.6 41.3C15.9 41.3 17.7 41.3 18.3 41.3C19.3 41.3 19.7 41.2 19.9 41.1C19.8 41.7 19.7 42.6 19.7 43.1C19.4 42.9 19.1 42.8 18.4 42.8C17.8 42.8 16 42.7 15.6 42.7C15.6 42.7 15.5 42.7 15.5 42.8V43.8C15.5 46.9 15.5 47.4 15.6 47.4C15.7 47.5 15.8 47.5 16 47.5C16.5 47.6 16.9 47.6 17.7 47.6C19.2 47.6 20.1 47.5 20.7 47.2C20.5 47.8 20.4 48.6 20.3 49C20.2 49.1 20 49.1 19.3 49.1C16.9 49.1 15.6 49 14.6 49C13.9 49 13.4 49 13.1 49.1C13.2 48.5 13.3 46.6 13.3 44V40.8Z" fill="white"/>
<path d="M23.3 48.9C22.8 48.9 22.2 48.9 21.9 49C22.2 48.7 22.9 47.8 23.9 46.4L26.1 43.2L24.1 40.1C23.3 38.9 22.7 38.1 22.2 37.7C22.6 37.7 23.2 37.7 23.8 37.7C24.4 37.7 24.8 37.7 25.1 37.6C25.4 38.3 26.6 40.3 27.4 41.5C27.9 40.9 28.5 40 28.6 39.7C29.1 38.9 29.6 38 29.7 37.6C29.8 37.6 30.2 37.6 30.6 37.6C31.2 37.6 31.9 37.5 32.1 37.5C31.7 37.9 31 38.8 30.4 39.6L28.2 42.6C28.6 43.3 29.4 44.6 30 45.4C31.1 47 32.1 48.3 32.5 48.7C32.2 48.7 31.6 48.7 31.2 48.7C30.7 48.7 29.7 48.7 29.4 48.8C29.3 48.6 28.6 47.2 28.5 46.9C27.9 45.8 27.6 45.3 26.9 44.2L25.2 46.9C24.7 47.7 24.3 48.5 24.2 48.7C24 48.9 23.8 48.9 23.3 48.9Z" fill="white"/>
<path d="M35.1 47.5C33.6 46.2 33.2 44.5 33.2 43.1C33.2 42 33.5 40.3 35 39C36.2 38 37.7 37.4 39.9 37.4C42 37.4 43.2 37.8 43.9 38C43.8 38.4 43.6 39.3 43.6 40.1C42.9 39.4 41.6 38.8 39.7 38.8C38.3 38.8 37.4 39.2 36.8 39.7C35.8 40.5 35.5 41.7 35.5 42.9C35.5 45.3 37 47.6 40.4 47.6C41.7 47.6 42.9 47.4 43.8 46.8C43.7 47.2 43.5 48.2 43.4 48.7C42.8 48.9 41.5 49.2 40.1 49.2C38.3 49.1 36.5 48.7 35.1 47.5Z" fill="white"/>
<path d="M46.3 42C46.3 39.6 46.2 38.2 46.1 37.7C46.4 37.7 46.9 37.7 47.4 37.7H51.1C51.6 37.7 52.3 37.7 52.6 37.6C52.5 37.9 52.5 38.6 52.5 39.4C52.2 39.3 51.9 39.2 51 39.1C50.5 39.1 49.5 39 48.6 39C48.6 39 48.5 39 48.5 39.1V42.2C48.5 42.2 48.5 42.3 48.6 42.3C48.9 42.3 50.4 42.3 51 42.3C51.9 42.3 52.2 42.2 52.4 42.2C52.3 42.7 52.2 43.6 52.2 44C51.9 43.8 51.6 43.8 51 43.7C50.5 43.7 49 43.6 48.6 43.6C48.6 43.6 48.5 43.6 48.5 43.7V44.4C48.5 47 48.5 47.3 48.6 47.4C48.7 47.5 48.8 47.5 49 47.5C49.4 47.5 49.9 47.6 50.5 47.6C51.8 47.6 52.6 47.5 53.1 47.3C52.9 47.8 52.8 48.6 52.7 49C52.6 49 52.4 49.1 51.8 49.1C49.7 49.1 48.5 49 47.6 49C46.9 49 46.4 49 46.2 49C46.3 48.5 46.4 46.9 46.4 44.7V42H46.3Z" fill="white"/>
<path d="M55.6 42C55.6 39.9 55.5 38.2 55.4 37.7C55.6 37.7 56.1 37.7 56.4 37.7C57 37.7 57.6 37.7 57.8 37.6C57.7 38.2 57.6 39.8 57.6 41.8V44.3C57.6 47 57.6 47.3 57.7 47.3C57.8 47.3 57.9 47.4 58.1 47.4C58.4 47.4 58.9 47.5 59.6 47.5C61 47.5 61.9 47.4 62.4 47.1C62.2 47.5 62 48.4 61.9 48.8C61.8 48.8 61.6 48.8 60.8 48.8C58.5 48.8 57.7 48.7 56.5 48.7C55.9 48.7 55.6 48.7 55.3 48.7C55.4 48.2 55.5 46.6 55.5 44.4V42H55.6Z" fill="white"/>
<path d="M64.5 42C64.5 39.9 64.4 38.2 64.3 37.7C64.5 37.7 65 37.7 65.3 37.7C65.9 37.7 66.5 37.7 66.7 37.6C66.6 38.2 66.5 39.8 66.5 41.8V44.3C66.5 47 66.5 47.3 66.6 47.3C66.7 47.3 66.8 47.4 67 47.4C67.3 47.4 67.8 47.5 68.5 47.5C69.9 47.5 70.8 47.4 71.3 47.1C71.1 47.5 70.9 48.4 70.8 48.8C70.7 48.8 70.5 48.8 69.7 48.8C67.4 48.8 66.6 48.7 65.4 48.7C64.8 48.7 64.5 48.7 64.2 48.7C64.3 48.2 64.4 46.6 64.4 44.4V42H64.5Z" fill="white"/>
<path d="M73.3 42C73.3 39.6 73.2 38.2 73.1 37.7C73.4 37.7 73.9 37.7 74.4 37.7H78.1C78.6 37.7 79.3 37.7 79.6 37.6C79.5 37.9 79.5 38.6 79.5 39.4C79.2 39.3 78.9 39.2 78 39.1C77.5 39.1 76.5 39 75.6 39C75.6 39 75.5 39 75.5 39.1V42.2C75.5 42.2 75.5 42.3 75.6 42.3C75.9 42.3 77.4 42.3 78 42.3C78.9 42.3 79.2 42.2 79.4 42.2C79.3 42.7 79.2 43.6 79.2 44C78.9 43.8 78.6 43.8 78 43.7C77.5 43.7 76 43.6 75.6 43.6C75.6 43.6 75.5 43.6 75.5 43.7V44.4C75.5 47 75.5 47.3 75.6 47.4C75.7 47.5 75.8 47.5 76 47.5C76.4 47.5 76.9 47.6 77.5 47.6C78.8 47.6 79.6 47.5 80.1 47.3C79.9 47.8 79.8 48.6 79.7 49C79.6 49 79.4 49.1 78.8 49.1C76.7 49.1 75.5 49 74.6 49C73.9 49 73.4 49 73.2 49C73.3 48.5 73.4 46.9 73.4 44.7V42H73.3Z" fill="white"/>
<path d="M83.6 48.9C83.4 48.9 82.6 48.9 82.4 49C82.5 47.6 82.6 41 82.6 38.4C82.6 37.6 82.6 37.6 82.7 37.6C82.8 37.6 82.9 37.7 83.2 38C85 39.6 89.1 43.8 91 45.2C91 43.8 90.9 39.8 90.8 37.8C91 37.8 91.4 37.9 91.7 37.9C92.2 37.9 92.8 37.9 92.9 37.8C92.8 38.7 92.6 42.8 92.6 46.1C92.6 46.9 92.6 48.1 92.6 48.5C92.6 49.2 92.6 49.3 92.4 49.3C92.3 49.3 91.9 49.1 90.8 48C89.2 46.6 85.8 43.1 84.2 41.6C84.2 44.5 84.3 47.9 84.5 49C84.3 48.9 83.9 48.9 83.6 48.9Z" fill="white"/>
<path d="M97.6 47.5C96.1 46.2 95.7 44.5 95.7 43.1C95.7 42 96 40.3 97.5 39C98.7 38 100.2 37.4 102.4 37.4C104.5 37.4 105.7 37.8 106.4 38C106.3 38.4 106.1 39.3 106.1 40.1C105.4 39.4 104.1 38.8 102.2 38.8C100.8 38.8 99.9 39.2 99.3 39.7C98.3 40.5 98 41.7 98 42.9C98 45.3 99.5 47.6 102.9 47.6C104.2 47.6 105.4 47.4 106.3 46.8C106.2 47.2 106 48.2 105.9 48.7C105.3 48.9 104 49.2 102.6 49.2C100.8 49.1 99 48.7 97.6 47.5Z" fill="white"/>
<path d="M108.8 42C108.8 39.6 108.7 38.2 108.6 37.7C108.9 37.7 109.4 37.7 109.9 37.7H113.6C114.1 37.7 114.8 37.7 115.1 37.6C115 37.9 115 38.6 115 39.4C114.7 39.3 114.4 39.2 113.5 39.1C113 39.1 112 39 111.1 39C111.1 39 111 39 111 39.1V42.2C111 42.2 111 42.3 111.1 42.3C111.4 42.3 112.9 42.3 113.5 42.3C114.4 42.3 114.7 42.2 114.9 42.2C114.8 42.7 114.7 43.6 114.7 44C114.4 43.8 114.1 43.8 113.5 43.7C113 43.7 111.5 43.6 111.1 43.6C111.1 43.6 111 43.6 111 43.7V44.4C111 47 111 47.3 111.1 47.4C111.2 47.5 111.3 47.5 111.5 47.5C111.9 47.5 112.4 47.6 113 47.6C114.3 47.6 115.1 47.5 115.6 47.3C115.4 47.8 115.3 48.6 115.2 49C115.1 49 114.9 49.1 114.3 49.1C112.2 49.1 111 49 110.1 49C109.4 49 108.9 49 108.7 49C108.8 48.5 108.9 46.9 108.9 44.7V42H108.8Z" fill="white"/>
<path d="M95.7 59.1H74.8V62.5H95.7V59.1Z" fill="#E42328"/>
<path d="M74.8 59.1H53.9V62.5H74.8V59.1Z" fill="white"/>
<path d="M53.8 59.1H32.9V62.5H53.8V59.1Z" fill="#253784"/>
</svg>
