<svg width="840" height="840" viewBox="0 0 840 840" fill="none" xmlns="http://www.w3.org/2000/svg">
<rect width="840" height="840" rx="420" fill="#C11627"/>
<path d="M601.542 451.401H483.114V463.177H601.542V451.401Z" fill="#E42328"/>
<path d="M483.114 451.401H362.283V463.177H483.114V451.401Z" fill="white"/>
<path d="M362.283 451.401H243.855V463.177H362.283V451.401Z" fill="#253784"/>
<path fill-rule="evenodd" clip-rule="evenodd" d="M533.736 633.925C533.736 694.301 484.792 743.245 424.416 743.245C364.04 743.245 315.096 694.301 315.096 633.925C315.096 573.549 364.04 524.605 424.416 524.605C484.792 524.605 533.736 573.549 533.736 633.925ZM424.416 736.963C481.322 736.963 527.453 690.831 527.453 633.925C527.453 577.019 481.322 530.888 424.416 530.888C367.51 530.888 321.379 577.019 321.379 633.925C321.379 690.831 367.51 736.963 424.416 736.963Z" fill="white"/>
<path d="M510.28 634.344C510.28 681.766 471.838 720.208 424.416 720.208C376.994 720.208 338.551 681.766 338.551 634.344C338.551 586.922 376.994 548.479 424.416 548.479C471.838 548.479 510.28 586.922 510.28 634.344Z" fill="white"/>
<path d="M424.886 548.061C376.475 548.061 337.295 587.241 337.295 635.652C337.295 680.576 371.142 717.705 414.835 722.833C414.22 719.346 406.425 669.089 406.425 668.884C406.425 668.678 406.425 668.473 406.835 668.473H412.168C412.989 668.473 412.989 667.858 413.194 667.653L422.835 616.575C422.835 616.575 422.835 616.575 422.835 616.37C423.04 615.344 422.015 615.139 422.015 615.139C416.886 615.139 397.604 615.139 397.604 615.139C397.604 615.139 396.373 615.139 396.783 614.113C396.783 614.113 404.784 566.318 405.399 562.215C405.399 562.01 405.604 561.805 405.809 561.805H431.861C432.271 561.805 432.066 562.215 432.066 562.215L431.246 565.497H411.553L408.066 585.19C408.066 585.6 408.066 586.42 409.091 586.42H426.117L425.297 589.703C425.297 589.703 425.297 589.703 425.092 589.703H407.655C406.835 589.703 406.63 590.318 406.63 590.523L403.142 610.421H423.451C423.861 610.421 423.861 610.626 423.861 610.626L422.63 613.703C422.425 614.524 423.245 614.934 423.451 614.934H428.579C443.553 614.113 449.092 621.498 449.297 628.678C449.502 636.268 443.553 643.857 434.528 644.268C431.861 644.473 429.604 643.447 428.989 643.447L428.784 642.627C447.246 644.678 452.374 616.37 427.963 619.652L418.527 668.678H412.989C412.168 668.678 412.168 669.294 412.168 669.499L418.938 709.91C418.938 709.91 441.707 668.473 441.707 668.268H447.246L416.886 722.628C419.348 722.833 422.015 723.038 424.476 723.038C472.887 723.038 512.068 683.858 512.068 635.447C512.478 587.241 473.298 548.061 424.886 548.061Z" fill="#C11627"/>
<path d="M207.708 245.565C207.708 235.003 207.708 227.197 206.33 224.442C207.708 224.442 209.085 224.442 210.463 224.442C211.841 224.442 218.269 224.442 221.484 224.442C226.994 224.442 232.045 225.36 235.259 227.197C238.933 229.493 242.147 233.626 242.147 239.136C242.147 245.565 238.474 250.156 232.963 254.289C237.096 260.718 242.606 267.606 246.739 273.116C250.413 276.79 252.249 278.626 253.627 279.545C252.249 280.463 249.494 280.463 247.198 280.463C243.066 280.463 240.77 279.086 238.014 276.79C233.882 272.657 227.453 263.014 224.698 258.422C224.698 257.504 223.78 257.504 223.78 257.504C222.402 257.504 218.269 257.504 215.514 257.504C215.514 257.504 215.514 257.504 215.514 258.422V261.177C215.514 270.361 216.432 277.249 216.432 280.922C215.514 280.922 213.677 280.922 212.3 280.922C210.004 280.922 207.249 280.922 205.871 280.922C206.789 278.167 206.789 268.983 206.789 259.799V245.565H207.708ZM216.892 250.616C216.892 251.075 216.892 251.075 216.892 250.616C218.269 251.993 221.024 251.993 224.698 251.993C226.994 251.993 228.371 251.993 228.831 251.075C231.127 248.779 233.882 246.024 233.882 241.432C233.882 233.626 228.371 229.493 221.943 229.493C219.647 229.493 218.269 229.493 216.892 229.493C216.892 229.493 216.892 229.493 216.892 230.411V250.616Z" fill="white"/>
<path d="M290.81 245.565C290.81 233.626 289.892 226.738 289.892 224.442C291.269 224.442 293.565 224.442 295.402 224.442H312.851C315.147 224.442 318.361 224.442 319.739 223.524C319.739 224.901 318.821 228.575 318.821 231.789C317.443 230.871 316.065 230.411 311.933 230.411C309.637 230.411 305.045 230.411 299.994 230.411V247.402C301.371 247.402 309.178 247.402 311.014 247.402C315.147 247.402 316.525 246.483 317.902 246.483C316.984 248.779 316.984 252.912 316.984 254.749C315.606 253.83 314.229 253.371 311.474 253.371C309.178 253.371 301.831 253.371 299.535 253.371V257.504C299.535 270.82 299.535 272.198 300.453 272.657C300.453 272.657 301.371 273.575 301.831 273.575C304.126 273.575 305.963 273.575 308.718 273.575C315.147 273.575 318.361 272.657 321.117 272.198C320.198 274.494 319.739 277.708 318.821 280.004C318.821 280.004 317.443 280.004 314.688 280.004C305.045 280.004 299.535 279.086 294.943 279.086C292.188 279.086 289.892 279.086 288.514 279.086C288.514 276.331 289.432 268.524 289.432 257.963V245.565H290.81ZM313.31 206.074C314.229 207.452 316.984 210.207 318.361 211.585C316.065 212.503 307.341 218.013 303.208 220.768L300.453 217.095L313.31 206.074Z" fill="white"/>
<path d="M359.229 267.147C361.525 269.902 367.035 273.575 372.545 273.575C378.974 273.575 381.729 269.902 381.729 265.769C381.729 262.096 380.352 259.34 374.841 256.126L371.168 253.83C362.902 248.32 361.525 243.269 361.525 238.677C361.525 230.411 367.953 223.983 378.515 223.983C381.27 223.983 384.025 224.901 386.321 224.901C389.076 225.819 390.454 225.819 391.372 225.819C391.372 226.738 390.454 231.33 390.454 235.463C389.076 234.085 385.403 230.411 379.433 230.411C374.382 230.411 371.168 234.085 371.168 237.299C371.168 240.514 372.086 242.81 377.596 246.942L380.352 247.861C389.535 253.371 391.372 258.422 391.372 263.932C391.372 268.065 389.076 273.575 384.484 277.249C380.811 279.545 376.219 280.922 372.545 280.922C367.494 280.922 361.984 279.545 359.229 277.249C359.229 276.331 360.147 270.82 359.229 267.147Z" fill="white"/>
<path d="M433.619 245.565C433.619 233.626 432.701 226.738 432.701 224.442C434.078 224.442 436.374 224.442 438.211 224.442H455.66C457.956 224.442 461.171 224.442 462.548 223.524C462.548 224.901 461.63 228.575 461.63 231.789C460.252 230.871 458.875 230.412 454.742 230.412C452.446 230.412 447.854 230.412 442.803 230.412V247.402C444.18 247.402 451.987 247.402 453.823 247.402C457.956 247.402 459.334 246.483 460.711 246.483C459.793 248.779 459.793 252.912 459.793 254.749C458.415 253.83 457.038 253.371 454.283 253.371C451.987 253.371 444.64 253.371 442.344 253.371V257.504C442.344 270.82 442.344 272.198 443.262 272.657C443.262 272.657 444.18 273.576 444.64 273.576C446.936 273.576 448.772 273.576 451.528 273.576C457.956 273.576 461.171 272.657 463.926 272.198C463.007 274.494 462.548 277.708 461.63 280.004C461.63 280.004 460.252 280.004 457.497 280.004C447.854 280.004 442.344 279.086 437.752 279.086C434.997 279.086 432.701 279.086 431.323 279.086C431.323 276.331 432.242 268.524 432.242 257.963V245.565H433.619Z" fill="white"/>
<path d="M515.815 263.014C513.519 268.524 510.764 275.412 510.305 279.086C509.386 279.086 508.009 279.086 506.172 279.086C504.335 279.086 501.121 279.086 500.662 279.086C502.958 274.953 505.713 268.524 508.927 260.259L523.621 225.82C524.999 223.065 524.999 222.146 525.917 222.146C526.835 222.146 526.835 223.065 528.213 225.82C529.131 228.116 536.478 244.187 542.907 258.881C546.581 266.688 550.713 275.871 552.55 278.627C550.254 278.627 548.877 278.627 547.499 278.627C544.744 278.627 541.989 278.627 540.611 278.627C539.234 274.953 536.478 267.606 534.182 262.555L515.815 263.014ZM531.887 257.045L524.999 238.677L518.111 257.045H531.887Z" fill="white"/>
<path d="M592.499 224.901C595.254 224.901 598.009 224.901 599.386 224.901C598.468 227.656 598.468 235.922 598.468 246.024V255.667C598.468 264.851 600.764 268.065 603.519 270.82C607.193 273.575 610.407 273.575 613.162 273.575C615.917 273.575 620.05 272.657 622.346 269.902C626.019 266.228 626.479 261.636 626.479 252.452V244.646C626.479 234.085 625.56 226.279 625.56 223.523C626.479 223.523 628.315 223.523 629.693 223.523C631.989 223.523 633.826 223.523 634.744 223.523C633.826 226.279 633.826 234.544 633.826 244.646V252.452C633.826 260.718 632.907 269.443 626.938 274.953C622.805 278.626 617.295 280.004 612.244 280.004C606.733 280.004 600.305 278.626 596.172 274.953C592.499 271.279 589.743 266.687 589.743 256.126V244.187C589.743 233.626 588.825 225.36 588.825 223.064C589.284 223.983 591.121 224.901 592.499 224.901Z" fill="white"/>
<path d="M63.965 335.772C63.965 315.568 63.0466 304.547 62.5874 299.955C64.8834 299.955 69.0161 299.955 72.2305 299.955H100.7C104.374 299.955 109.884 299.955 111.721 299.037C110.803 301.333 110.343 306.843 110.343 312.813C108.047 311.435 105.292 310.517 99.3227 310.517C95.19 310.517 87.3838 309.598 79.5775 309.598C79.5775 309.598 78.6591 309.598 78.6591 310.517V337.609C78.6591 338.527 78.6591 338.527 79.5775 338.527C81.8735 338.527 94.2716 338.527 98.4044 338.527C105.292 338.527 108.047 337.609 109.425 337.15C108.507 341.283 108.047 347.711 108.047 350.926C105.751 349.548 103.915 348.63 98.8635 348.63C94.7308 348.63 81.8735 347.711 79.1183 347.711C79.1183 347.711 78.1999 347.711 78.1999 348.63V355.517C78.1999 377.099 78.1999 380.773 79.1183 380.773C80.0367 381.691 80.4959 381.691 81.8735 381.691C85.547 382.61 88.3021 382.61 93.8124 382.61C104.374 382.61 110.803 381.691 114.935 379.855C113.558 383.987 112.639 389.498 112.18 392.253C111.262 393.171 109.884 393.171 105.292 393.171C88.3021 393.171 79.5775 392.253 72.2305 392.253C67.1794 392.253 63.965 392.253 61.6691 393.171C62.5874 389.038 63.0466 375.722 63.0466 357.354V335.772H63.965Z" fill="white"/>
<path d="M133.763 392.253C130.089 392.253 125.956 392.253 124.12 393.171C126.416 390.875 131.007 384.906 137.895 374.804L153.049 352.303L139.273 330.721C133.763 322.456 129.63 316.946 125.956 313.731C128.711 313.731 132.844 313.731 136.977 313.731C141.11 313.731 143.865 313.731 146.161 312.813C148.457 317.864 156.722 331.64 162.232 339.905C165.906 335.772 170.039 329.344 170.498 327.507C174.171 321.997 177.386 315.568 178.304 312.813C179.223 312.813 181.978 312.813 184.733 312.813C188.866 312.813 193.917 311.894 195.294 311.894C192.539 314.65 187.488 321.078 183.355 326.589L168.202 347.711C170.957 352.762 176.467 361.487 180.6 367.457C188.406 378.477 195.294 387.661 198.049 390.416C195.753 390.416 191.621 390.416 188.866 390.416C185.192 390.416 178.304 390.416 176.467 391.335C175.549 389.957 170.957 380.314 170.039 378.018C165.906 370.212 163.61 366.997 159.018 359.191L147.079 378.018C143.406 383.528 140.65 389.039 140.191 390.416C138.814 392.253 137.436 392.253 133.763 392.253Z" fill="white"/>
<path d="M216.416 382.61C205.854 373.426 203.099 361.487 203.099 351.844C203.099 344.038 205.395 332.099 215.497 323.374C223.763 316.486 234.324 312.354 249.937 312.354C264.631 312.354 272.896 315.109 277.947 316.486C277.029 319.241 275.652 325.67 275.652 331.18C270.6 326.129 261.876 321.997 248.559 321.997C238.916 321.997 232.488 324.752 228.355 328.425C221.467 333.935 219.171 342.201 219.171 350.926C219.171 367.916 229.732 383.987 253.61 383.987C262.794 383.987 271.06 382.61 277.488 378.477C276.57 381.232 275.192 388.12 274.733 391.794C270.6 393.171 261.417 395.467 251.774 395.467C238.916 393.63 226.059 390.875 216.416 382.61Z" fill="white"/>
<path d="M294.479 344.037C294.479 327.047 293.56 317.404 293.101 314.19C295.397 314.19 298.611 314.19 302.285 314.19H328C331.673 314.19 336.265 314.19 338.561 313.272C337.643 315.568 337.643 320.159 337.643 325.67C335.347 324.751 333.51 324.292 327.081 323.374C323.408 323.374 316.52 322.455 310.091 322.455C310.091 322.455 309.173 322.455 309.173 323.374V344.956C309.173 344.956 309.173 345.874 310.091 345.874C312.387 345.874 322.489 345.874 327.081 345.874C333.51 345.874 335.347 344.956 336.724 344.956C335.806 348.629 335.347 354.599 335.347 357.354C333.051 355.976 331.214 355.976 327.081 355.058C323.408 355.058 313.305 354.14 310.091 354.14C310.091 354.14 309.173 354.14 309.173 355.058V360.109C309.173 378.477 309.173 380.313 310.091 381.232C311.01 382.15 311.469 382.15 312.846 382.15C315.601 382.15 319.275 383.069 323.408 383.069C332.592 383.069 338.102 382.15 341.775 380.773C340.398 384.446 339.479 389.956 339.02 392.712C338.102 392.712 336.724 393.63 332.592 393.63C317.897 393.63 309.632 392.712 303.203 392.712C298.152 392.712 294.938 392.712 293.56 392.712C294.479 389.038 294.938 378.017 294.938 362.864V344.037H294.479Z" fill="white"/>
<path d="M359.685 344.037C359.685 329.343 358.766 317.404 358.307 314.19C359.685 314.19 363.358 314.19 365.195 314.19C369.328 314.19 373.46 314.19 374.838 313.272C373.919 317.404 373.46 328.425 373.46 342.66V360.109C373.46 378.936 373.46 381.232 374.379 381.232C375.297 381.232 375.756 382.15 377.134 382.15C379.43 382.15 382.644 383.069 387.695 383.069C397.338 383.069 403.767 382.15 407.44 380.313C406.063 383.069 404.685 389.497 403.767 392.252C402.849 392.252 401.471 392.252 395.961 392.252C379.889 392.252 374.379 391.334 366.113 391.334C361.981 391.334 359.685 391.334 357.848 391.334C358.766 387.66 359.225 376.64 359.225 361.487V344.497L359.685 344.037Z" fill="white"/>
<path d="M421.675 344.037C421.675 329.343 420.756 317.404 420.297 314.19C421.675 314.19 425.348 314.19 427.185 314.19C431.318 314.19 435.45 314.19 436.828 313.272C435.91 317.404 435.45 328.425 435.45 342.66V360.109C435.45 378.936 435.45 381.232 436.369 381.232C437.287 381.232 437.746 382.15 439.124 382.15C441.42 382.15 444.634 383.069 449.685 383.069C459.328 383.069 465.757 382.15 469.431 380.313C468.053 383.069 466.675 389.497 465.757 392.252C464.839 392.252 463.461 392.252 457.951 392.252C441.879 392.252 436.369 391.334 428.103 391.334C423.971 391.334 421.675 391.334 419.838 391.334C420.756 387.66 421.216 376.64 421.216 361.487V344.497L421.675 344.037Z" fill="white"/>
<path d="M483.207 344.037C483.207 327.047 482.289 317.404 481.829 314.19C484.125 314.19 487.34 314.19 491.013 314.19H516.728C520.402 314.19 524.993 314.19 527.289 313.272C526.371 315.568 526.371 320.159 526.371 325.67C524.075 324.751 522.238 324.292 515.81 323.374C512.136 323.374 505.248 322.455 498.82 322.455C498.82 322.455 497.901 322.455 497.901 323.374V344.956C497.901 344.956 497.901 345.874 498.82 345.874C501.116 345.874 511.218 345.874 515.81 345.874C522.238 345.874 524.075 344.956 525.453 344.956C524.534 348.629 524.075 354.599 524.075 357.354C521.779 355.976 519.942 355.976 515.81 355.058C512.136 355.058 502.034 354.14 498.82 354.14C498.82 354.14 497.901 354.14 497.901 355.058V360.109C497.901 378.477 497.901 380.313 498.82 381.232C499.738 382.15 500.197 382.15 501.575 382.15C504.33 382.15 508.003 383.069 512.136 383.069C521.32 383.069 526.83 382.15 530.504 380.773C529.126 384.446 528.208 389.956 527.749 392.712C526.83 392.712 525.453 393.63 521.32 393.63C506.626 393.63 498.36 392.712 491.932 392.712C486.881 392.712 483.666 392.712 482.289 392.712C483.207 389.038 483.666 378.017 483.666 362.864L483.207 344.037Z" fill="white"/>
<path d="M555.301 392.252C553.923 392.252 548.413 392.252 547.035 393.171C547.954 383.528 548.413 337.149 548.413 319.241C548.413 313.731 548.413 313.731 549.331 313.731C550.25 313.731 550.709 314.649 553.005 316.486C565.403 327.506 594.332 356.895 607.649 366.997C607.649 357.354 606.73 329.343 606.271 315.108C607.649 315.108 610.404 316.027 612.7 316.027C616.373 316.027 620.506 316.027 620.965 315.108C620.047 321.537 618.669 350.007 618.669 372.966C618.669 378.477 618.669 386.742 618.669 389.956C618.669 395.007 618.669 395.467 617.292 395.467C616.373 395.467 613.618 394.089 606.271 386.283C595.251 376.64 571.373 351.843 560.352 341.741C560.352 361.946 561.27 385.824 562.648 393.63C559.893 392.252 557.138 392.252 555.301 392.252Z" fill="white"/>
<path d="M653.107 382.61C642.545 373.426 639.79 361.487 639.79 351.844C639.79 344.038 642.086 332.099 652.188 323.374C660.454 316.486 671.015 312.354 686.628 312.354C701.322 312.354 709.587 315.109 714.638 316.486C713.72 319.241 712.342 325.67 712.342 331.18C707.291 326.129 698.567 321.997 685.25 321.997C675.607 321.997 669.178 324.752 665.046 328.425C658.158 333.935 655.862 342.201 655.862 350.926C655.862 367.916 666.423 383.987 690.301 383.987C699.485 383.987 707.751 382.61 714.179 378.477C713.261 381.232 711.883 388.12 711.424 391.794C707.291 393.171 698.107 395.467 688.464 395.467C675.148 393.63 662.75 390.875 653.107 382.61Z" fill="white"/>
<path d="M731.17 344.037C731.17 327.047 730.251 317.404 729.792 314.19C732.088 314.19 735.302 314.19 738.976 314.19H764.691C768.364 314.19 772.956 314.19 775.252 313.272C774.334 315.568 774.334 320.159 774.334 325.67C772.038 324.751 770.201 324.292 763.772 323.374C760.099 323.374 753.211 322.455 746.782 322.455C746.782 322.455 745.864 322.455 745.864 323.374V344.956C745.864 344.956 745.864 345.874 746.782 345.874C749.078 345.874 759.18 345.874 763.772 345.874C770.201 345.874 772.038 344.956 773.415 344.956C772.497 348.629 772.038 354.599 772.038 357.354C769.742 355.976 767.905 355.976 763.772 355.058C760.099 355.058 749.997 354.14 746.782 354.14C746.782 354.14 745.864 354.14 745.864 355.058V360.109C745.864 378.477 745.864 380.313 746.782 381.232C747.701 382.15 748.16 382.15 749.537 382.15C752.293 382.15 755.966 383.069 760.099 383.069C769.283 383.069 774.793 382.15 778.466 380.773C777.089 384.446 776.17 389.956 775.711 392.712C774.793 392.712 773.415 393.63 769.283 393.63C754.589 393.63 746.323 392.712 739.894 392.712C734.843 392.712 731.629 392.712 730.251 392.712C731.17 389.038 731.629 378.017 731.629 362.864V344.037H731.17Z" fill="white"/>
</svg>
